<svg t="1700548746563" class="icon" viewBox="0 0 1024 1024" version="1.1" xmlns="http://www.w3.org/2000/svg"
    p-id="43283" width="800" height="800">
    <path
        d="M725.333333 151.637333V768H384V12.330667A8.533333 8.533333 0 0 1 395.52 4.266667l307.626667 115.370666a34.133333 34.133333 0 0 1 22.186666 32zM341.333333 137.813333V768H85.333333V312.277333a34.133333 34.133333 0 0 1 15.061334-28.330666l227.626666-153.216A8.533333 8.533333 0 0 1 341.333333 137.813333zM34.133333 768h785.066667a34.133333 34.133333 0 0 1 34.133333 34.133333V853.333333H0v-51.2a34.133333 34.133333 0 0 1 34.133333-34.133333z"
        fill="#111314" fill-opacity=".72" p-id="43284"></path>
    <path
        d="M179.2 384h68.266667c4.693333 0 8.533333 3.84 8.533333 8.533333v68.266667a8.533333 8.533333 0 0 1-8.533333 8.533333H179.2a8.533333 8.533333 0 0 1-8.533333-8.533333V392.533333c0-4.693333 3.84-8.533333 8.533333-8.533333zM179.2 554.666667h68.266667c4.693333 0 8.533333 3.84 8.533333 8.533333v68.266667a8.533333 8.533333 0 0 1-8.533333 8.533333H179.2a8.533333 8.533333 0 0 1-8.533333-8.533333v-68.266667c0-4.693333 3.84-8.533333 8.533333-8.533333z"
        fill="#FFFFFF" p-id="43285"></path>
    <path
        d="M477.866667 213.333333h68.266666c4.693333 0 8.533333 3.84 8.533334 8.533334v68.266666a8.533333 8.533333 0 0 1-8.533334 8.533334h-68.266666a8.533333 8.533333 0 0 1-8.533334-8.533334V221.866667c0-4.693333 3.84-8.533333 8.533334-8.533334z"
        fill="#FFC13C" p-id="43286"></path>
    <path
        d="M477.866667 384h68.266666c4.693333 0 8.533333 3.84 8.533334 8.533333v68.266667a8.533333 8.533333 0 0 1-8.533334 8.533333h-68.266666a8.533333 8.533333 0 0 1-8.533334-8.533333V392.533333c0-4.693333 3.84-8.533333 8.533334-8.533333zM477.866667 554.666667h68.266666c4.693333 0 8.533333 3.84 8.533334 8.533333v68.266667a8.533333 8.533333 0 0 1-8.533334 8.533333h-68.266666a8.533333 8.533333 0 0 1-8.533334-8.533333v-68.266667c0-4.693333 3.84-8.533333 8.533334-8.533333z"
        fill="#FFFFFF" p-id="43287"></path>
    <path
        d="M597.333333 938.666667c0 23.552-85.973333 42.666667-192 42.666666S213.333333 962.218667 213.333333 938.666667V853.333333h384v85.333334z"
        fill="#CACBCC" p-id="43288"></path>
    <path d="M213.333333 853.333333a192 42.666667 0 1 0 384 0 192 42.666667 0 1 0-384 0Z" fill="#EDEEF0" p-id="43289">
    </path>
    <path
        d="M1024 981.333333c0 23.552-85.973333 42.666667-192 42.666667S640 1004.885333 640 981.333333V896h384v85.333333z"
        fill="#CACBCC" p-id="43290"></path>
    <path d="M640 896a192 42.666667 0 1 0 384 0 192 42.666667 0 1 0-384 0Z" fill="#EDEEF0" p-id="43291"></path>
    <path
        d="M938.666667 896c0 23.552-85.973333 42.666667-192 42.666667S554.666667 919.552 554.666667 896V810.666667h384v85.333333z"
        fill="#5BADFF" p-id="43292"></path>
    <path d="M554.666667 810.666667a192 42.666667 0 1 0 384 0 192 42.666667 0 1 0-384 0Z" fill="#EDEEF0" p-id="43293">
    </path>
    <path
        d="M981.333333 768c0 23.552-85.973333 42.666667-192 42.666667S597.333333 791.552 597.333333 768V682.666667h384v85.333333z"
        fill="#CACBCC" p-id="43294"></path>
    <path d="M597.333333 682.666667a192 42.666667 0 1 0 384 0 192 42.666667 0 1 0-384 0Z" fill="#EDEEF0" p-id="43295">
    </path>
</svg>