<svg t="1700537659093" class="icon" viewBox="0 0 1024 1024" version="1.1" xmlns="http://www.w3.org/2000/svg" p-id="9736"
    width="800" height="800">
    <path
        d="M714.64 772.92c-6.08 0-12.16-2.28-16.8-6.88l-49.96-49.04a24.048 24.048 0 0 1-0.32-33.96 24.048 24.048 0 0 1 33.96-0.32l33.16 32.52 64.68-63.56a24 24 0 0 1 33.92 0.28 24 24 0 0 1-0.28 33.92l-81.48 80.12a23.96 23.96 0 0 1-16.88 6.92z"
        fill="#3A4ED0" p-id="9737"></path>
    <path
        d="M493.24 348.92c-167.04 0-346.84-35.64-346.84-113.88s179.8-113.88 346.84-113.88 346.84 35.64 346.84 113.88-179.76 113.88-346.84 113.88z m0-179.8c-84.12 0-162.92 9.04-221.84 25.44-63.28 17.64-77 36.68-77 40.44s13.72 22.8 77 40.44c58.96 16.4 137.72 25.44 221.84 25.44s162.92-9.04 221.84-25.44c63.28-17.64 77-36.68 77-40.44s-13.72-22.8-77-40.44c-58.92-16.4-137.68-25.44-221.84-25.44z"
        fill="#99999D" p-id="9738"></path>
    <path
        d="M493.24 519.6c-167.04 0-346.84-35.64-346.84-113.88V240.2c0-13.24 10.76-24 24-24s24 10.76 24 24v165.52c0 3.76 13.72 22.8 77 40.44 58.96 16.4 137.72 25.44 221.84 25.44s162.92-9.04 221.84-25.44c63.28-17.64 77-36.68 77-40.44V240.2c0-13.24 10.76-24 24-24s24 10.76 24 24v165.52c0.04 78.24-179.76 113.88-346.84 113.88z"
        fill="#99999D" p-id="9739"></path>
    <path
        d="M493.24 692.8c-167.04 0-346.84-35.64-346.84-113.88v-165.52c0-13.24 10.76-24 24-24s24 10.76 24 24v165.52c0 3.76 13.72 22.8 77 40.44 58.96 16.4 137.72 25.44 221.84 25.44 13.24 0 24 10.76 24 24s-10.72 24-24 24z"
        fill="#99999D" p-id="9740"></path>
    <path
        d="M493.24 861.96c-167.04 0-346.84-35.64-346.84-113.88v-165.52c0-13.24 10.76-24 24-24s24 10.76 24 24v165.52c0 3.76 13.72 22.8 77 40.44 58.96 16.4 137.72 25.44 221.84 25.44 13.24 0 24 10.76 24 24s-10.72 24-24 24z"
        fill="#99999D" p-id="9741"></path>
    <path d="M691.36 387.92m-23.84 0a23.84 23.84 0 1 0 47.68 0 23.84 23.84 0 1 0-47.68 0Z" fill="#99999D" p-id="9742">
    </path>
    <path
        d="M730.88 891.28h-2.72c-2.2 0-4.36-0.28-6.48-0.88-60.44-16.92-148.68-88.96-152.4-92a23.964 23.964 0 0 1-8.76-18.56v-193.64c0-12.28 9.24-22.56 21.44-23.88 43.48-4.68 88.24-18.64 136.92-42.72 6.88-3.4 15-3.32 21.8 0.28 41.16 21.6 87.24 35.92 137 42.52 11.92 1.6 20.84 11.76 20.84 23.8v193.64c0 7.2-3.2 14-8.76 18.56-3.72 3.04-91.96 75.08-152.4 92-2.12 0.6-4.28 0.88-6.48 0.88z m-122.32-122.96c27.52 21.52 83.2 61.6 121 74.28 37.84-12.72 93.52-52.76 121-74.28v-161.56c-43.24-7.6-83.88-20.64-121.24-38.88-41.96 19.8-81.76 32.72-120.72 39.24v161.2z"
        fill="#3A4ED0" p-id="9743"></path>
</svg>