<svg t="1700548706978" class="icon" viewBox="0 0 1039 1024" version="1.1" xmlns="http://www.w3.org/2000/svg"
    p-id="42192" width="800" height="800">
    <path
        d="M1027.699678 11.803508a40.631696 40.631696 0 0 0-57.453218 0.203158L878.459459 104.403143c-101.802714-98.023966-264.370129-96.540909-364.324101 4.063169l-109.380525 110.132212a40.631696 40.631696 0 0 0 0.203158 57.453218l351.586065 349.229426a40.631696 40.631696 0 0 0 28.62503 11.803508h0.142211a40.631696 40.631696 0 0 0 28.685977-12.006666l109.380525-110.111896c96.236172-96.886279 100.177446-251.20546 12.189509-352.825332L1027.9841 69.256726a40.631696 40.631696 0 0 0-0.284422-57.453218zM865.721423 457.716054l-80.73518 81.263392L491.036239 247.061027l80.755496-81.263392a178.637251 178.637251 0 0 1 252.343147-0.853266l40.631696 40.46917a178.637251 178.637251 0 0 1 0.954845 252.302515z"
        fill="#545e61" p-id="42193"></path>
    <path
        d="M572.543421 686.127133l62.613443-62.979129a40.631696 40.631696 0 0 0-57.656376-57.270375l-62.633759 62.979128-111.838743-111.087056 62.633759-62.979129a40.631696 40.631696 0 0 0-57.656377-57.250059l-62.633759 62.979128-62.207126-61.800809a40.631696 40.631696 0 0 0-57.473534 0.203158l-109.380525 110.111896a260.449171 260.449171 0 0 0-12.189509 352.825332L11.805702 954.722958a40.631696 40.631696 0 1 0 57.656376 57.270376l91.787001-92.396477a257.767479 257.767479 0 0 0 180.059361 72.324419h0.914213a258.011269 258.011269 0 0 0 183.370843-76.42822l109.380526-110.111896a40.631696 40.631696 0 0 0-0.203159-57.473534z m-104.626617 172.095548a177.093247 177.093247 0 0 1-125.958257 52.435203H341.30844a177.093247 177.093247 0 0 1-125.714467-51.581938l-25.943338-25.740179-14.810253-14.607095a179.043568 179.043568 0 0 1-0.853266-252.343147l80.73518-81.263392 293.929688 291.938735z"
        fill="#3390FF" p-id="42194"></path>
</svg>