<svg t="1700549295950" class="icon" viewBox="0 0 1024 1024" version="1.1" xmlns="http://www.w3.org/2000/svg"
    p-id="50513" width="800" height="800">
    <path
        d="M409.815579 71.572211c213.477053 0 362.388211 60.389053 362.38821 134.736842v80.855579c0 74.374737-148.911158 134.736842-362.38821 134.736842v-0.067369C196.311579 421.888 71.572211 361.498947 71.572211 287.124211v-80.815158c0-74.334316 124.766316-134.723368 338.243368-134.723369zM87.713684 661.450105c46.645895 54.703158 139.129263 94.369684 303.157895 94.369684 10.469053 0 20.776421-0.202105 31.002947-0.592842v188.631579c-9.835789 0.404211-19.779368 0.538947-29.871158 0.538948-202.293895 0.053895-320.444632-60.227368-320.444631-134.656v-107.789474c0-14.08 5.281684-27.661474 16.168421-40.407579v-0.094316z m0-262.346105c46.645895 54.676211 139.129263 94.329263 303.157895 94.329263 10.644211 0 20.965053-0.094316 31.002947-0.282947v188.416c-9.835789 0.282947-19.779368 0.485053-29.871158 0.485052-202.293895 0.040421-320.444632-60.321684-320.444631-134.682947v-107.829895c0-14.026105 5.281684-27.621053 16.168421-40.434526z"
        fill="#51BF8D" p-id="50514"></path>
    <path
        d="M552.286316 752.276211l68.149895-152.872422a93.076211 93.076211 0 0 1 51.2-170.886736 93.130105 93.130105 0 0 1 58.51621 165.591579l109.621895 159.582315a93.130105 93.130105 0 1 1-23.929263 8.663579l-106.778948-155.418947a92.833684 92.833684 0 0 1-66.802526 3.085474l-66.15579 148.277894c33.077895 13.648842 56.468211 47.265684 56.468211 86.608842 0 51.388632-40.016842 93.076211-89.411368 93.076211-49.421474 0-89.397895-41.687579-89.397895-93.076211 0-51.429053 40.016842-93.170526 89.397895-93.170526 3.098947 0 6.117053 0.202105 9.10821 0.485053v0.053895z"
        fill="#F4D460" p-id="50515"></path>
</svg>