<svg t="1700537540382" class="icon" viewBox="0 0 1024 1024" version="1.1" xmlns="http://www.w3.org/2000/svg" p-id="7513"
    width="800" height="800">
    <path
        d="M728.576 896c-11.776 0-20.992-9.728-20.992-20.992v-61.952H347.648v61.952c0 11.776-9.728 20.992-20.992 20.992H143.872c-11.776 0-20.992-9.728-20.992-20.992v-182.272c0-11.776 9.728-20.992 20.992-20.992h61.952V311.808H143.872c-11.776 0-20.992-9.728-20.992-20.992V108.032c0-11.776 9.728-20.992 20.992-20.992h182.272c11.776 0 20.992 9.728 20.992 20.992v61.952h359.936V108.032c0-11.776 9.728-20.992 20.992-20.992h182.272c11.776 0 20.992 9.728 20.992 20.992v182.272c0 11.776-9.728 20.992-20.992 20.992h-61.952v359.936h61.952c11.776 0 20.992 9.728 20.992 20.992v182.272c0 11.776-9.728 20.992-20.992 20.992h-181.76z m145.408-57.856v-108.032h-108.032v108.032h108.032z m-584.704 0v-108.032H180.736v108.032h108.544z m417.792-83.456v-61.952c0-11.776 9.728-20.992 20.992-20.992h61.952V311.808h-61.952c-11.776 0-20.992-9.728-20.992-20.992V228.352H347.648v61.952c0 11.776-9.728 20.992-20.992 20.992H264.192v359.936h61.952c11.776 0 20.992 9.728 20.992 20.992v61.952h359.936z m166.912-501.248V144.896h-108.032v108.032h108.032z m-584.704 0V144.896H180.736v108.032h108.544z"
        fill="#343399" p-id="7514"></path>
    <path
        d="M402.944 390.144c-8.192 0-13.312-5.12-13.312-13.312v-32.256c0-8.192 5.12-13.312 13.312-13.312H650.24c8.192 0 13.312 5.12 13.312 13.312v32.256c0 8.192-5.12 13.312-13.312 13.312H402.944zM402.944 521.216c-8.192 0-13.312-5.12-13.312-13.312V476.16c0-8.192 5.12-13.312 13.312-13.312H650.24c8.192 0 13.312 5.12 13.312 13.312v32.256c0 8.192-5.12 13.312-13.312 13.312H402.944zM402.944 652.288c-8.192 0-13.312-5.12-13.312-13.312v-32.256c0-8.192 5.12-13.312 13.312-13.312H650.24c8.192 0 13.312 5.12 13.312 13.312v32.256c0 8.192-5.12 13.312-13.312 13.312H402.944z"
        fill="#F59D0D" p-id="7515"></path>
</svg>