<svg t="1700538221280" class="icon" viewBox="0 0 1024 1024" version="1.1" xmlns="http://www.w3.org/2000/svg"
    p-id="25719" width="800" height="800">
    <path d="M511.5904 261.2224m-150.528 0a150.528 150.528 0 1 0 301.056 0 150.528 150.528 0 1 0-301.056 0Z"
        fill="#DCEDFF" p-id="25720"></path>
    <path d="M242.3808 745.3184m-150.528 0a150.528 150.528 0 1 0 301.056 0 150.528 150.528 0 1 0-301.056 0Z"
        fill="#DCEDFF" p-id="25721"></path>
    <path d="M786.176 745.3184m-150.528 0a150.528 150.528 0 1 0 301.056 0 150.528 150.528 0 1 0-301.056 0Z"
        fill="#DCEDFF" p-id="25722"></path>
    <path
        d="M843.8784 573.44C835.0208 465.92 773.12 367.7696 679.936 313.088c5.0688-16.384 7.7824-33.792 7.7824-51.8656 0-97.1264-79.0016-176.128-176.128-176.128s-176.128 79.0016-176.128 176.128c0 18.0224 2.7136 35.4304 7.7824 51.8656-94.2592 55.1936-155.8016 153.3952-164.096 262.3488-65.9968 25.4464-112.9472 89.4976-112.9472 164.352 0 97.1264 79.0016 176.128 176.128 176.128 35.8912 0 69.3248-10.8032 97.2288-29.3376 51.8144 31.2832 111.0528 47.7696 172.032 47.7696 62.208 0 122.368-17.1008 174.848-49.5104a175.15008 175.15008 0 0 0 99.7376 31.0784c97.1264 0 176.128-79.0016 176.128-176.128 0.0512-76.9024-49.5616-142.3872-118.4256-166.3488z m-332.288-437.1456c68.9152 0 124.928 56.064 124.928 124.928s-56.064 124.928-124.928 124.928-124.928-56.064-124.928-124.928 56.0128-124.928 124.928-124.928zM117.4016 739.84c0-68.9152 56.064-124.928 124.928-124.928 68.9152 0 124.928 56.064 124.928 124.928s-56.064 124.928-124.928 124.928-124.928-56.064-124.928-124.928z m261.9904 110.4896c24.4224-30.2592 39.1168-68.7104 39.1168-110.5408 0-97.1264-79.0016-176.128-176.128-176.128-3.5328 0-7.0656 0.1536-10.5472 0.3584 11.1616-84.6336 60.3648-160.1024 133.632-204.544 31.6928 47.0016 85.3504 77.9264 146.176 77.9264 60.7744 0 114.4832-30.976 146.1248-77.9264 72.8576 44.288 122.4192 120.2176 133.632 204.3392-1.7408-0.0512-3.4304-0.1536-5.2224-0.1536-97.1264 0-176.128 79.0016-176.128 176.128 0 40.9088 14.0288 78.5408 37.5296 108.4928-41.472 22.8864-88.0128 34.8672-135.9872 34.8672-46.4384 0.0512-91.648-11.264-132.1984-32.8192z m406.784 14.4384c-68.9152 0-124.928-56.064-124.928-124.928s56.064-124.928 124.928-124.928 124.928 56.064 124.928 124.928-56.0128 124.928-124.928 124.928z"
        fill="#5B90EF" p-id="25723"></path>
</svg>