<svg t="1700549052304" class="icon" viewBox="0 0 1027 1024" version="1.1" xmlns="http://www.w3.org/2000/svg" p-id="46104" width="800" height="800"><path d="M512.989926 634.80289c67.106543 0 121.917167-54.914826 121.917167-121.917167s-54.914826-121.917167-121.917167-121.917167-121.917167 54.914826-121.917167 121.917167 54.810624 121.917167 121.917167 121.917167z m0-182.979953a60.958583 60.958583 0 1 1-60.958584 60.958583 61.104467 61.104467 0 0 1 60.958584-60.958583z" fill="#00D929" p-id="46105"></path><path d="M112.643126 607.605984a29.051715 29.051715 0 0 0-27.092704 39.597028C121.708762 754.740206 195.067467 847.376412 292.809606 901.97863H176.936196c-12.191717-36.57515-45.744988-60.958583-85.342017-60.958583-51.788745 0-91.489977 39.597029-91.489976 91.489976s39.597029 91.489977 91.489976 91.489977c39.597029 0 73.1503-24.383433 85.342017-60.958583h219.450901v-0.104203a39.597029 39.597029 0 0 0 39.28442-39.597029c0-21.778366-19.173298-32.71965-39.28442-39.492826a397.199878 397.199878 0 0 1-256.026051-256.02605h-0.104203a28.832889 28.832889 0 0 0-27.613717-20.215325zM914.691361 416.394016a29.051715 29.051715 0 0 0 27.092703-39.597028c-36.158339-107.537193-109.517045-200.1734-207.259184-254.775618h115.87341c12.191717 36.57515 45.744988 60.958583 85.342017 60.958583 51.788745 0 91.489977-39.597029 91.489977-91.489976S987.633255 0 935.740307 0c-39.597029 0-73.1503 24.383433-85.342017 60.958583H630.94739v0.104203a39.597029 39.597029 0 0 0-39.284421 39.597029c0 21.778366 19.173298 32.71965 39.284421 39.492826a397.199878 397.199878 0 0 1 256.026051 256.02605h0.104202a28.968352 28.968352 0 0 0 27.613718 20.215325zM610.836267 911.461077a29.051715 29.051715 0 0 0 39.597029 27.092703C757.970489 902.395441 850.606696 829.036736 905.208914 731.294597v115.769207c-36.57515 12.191717-60.958583 45.744988-60.958583 85.342017 0 51.788745 39.597029 91.489977 91.489976 91.489976s91.489977-39.597029 91.489977-91.489976c0-39.597029-24.383433-73.1503-60.958584-85.342017V627.612903h-0.104202a39.597029 39.597029 0 0 0-39.597029-39.28442c-21.778366 0-32.71965 19.173298-39.492826 39.28442A397.199878 397.199878 0 0 1 631.051593 883.638954v0.104203a29.176758 29.176758 0 0 0-20.215326 27.71792zM396.387097 140.152641A29.051715 29.051715 0 1 0 376.901191 85.44622c-107.641396 36.054137-200.1734 109.412842-254.879821 207.154981V176.831993c36.57515-12.191717 60.958583-45.744988 60.958583-85.342016 0-51.788745-39.597029-91.489977-91.489976-91.489977S0 39.597029 0 91.489977c0 39.597029 24.383433 73.1503 60.958583 85.342016v219.450901h0.104203a39.597029 39.597029 0 0 0 39.597029 39.284421c21.778366 0 32.71965-19.173298 39.492826-39.284421a398.325267 398.325267 0 0 1 256.234456-256.130253zM787.25145 512.78152c0-152.44856-121.917167-274.365727-274.365727-274.365727-0.625216 0-1.14623-0.104203-1.771446-0.104202a30.531393 30.531393 0 0 0 0 61.062786 15.39074 15.39074 0 0 0 2.188257-0.104203C631.989417 299.478579 726.292867 393.886232 726.292867 512.677318s-94.511855 213.407144-213.407144 213.407143c-118.478478 0-212.677725-93.886639-213.302941-212.156711v-1.14623a30.531393 30.531393 0 0 0-61.062786 0v0.625217c0.416811 152.031749 122.125572 273.636308 274.365727 273.636308 152.44856 0.104203 274.365727-121.812964 274.365727-274.261525z" fill="#0066EB" p-id="46106"></path></svg>