<svg viewBox="0 0 1620 1028" xmlns="http://www.w3.org/2000/svg"><g id="a"></g><g id="b"><g id="c"><g><path fill="#ebf3fa" d="M144.18,1026.26s-230.16-136.24-108.87-404.76c76.7-169.8,254.97-118.14,246.3-377.44C272.94-15.23,693.42-37.51,827.26,37.68c133.84,75.19,121.94,120.44,396.72,79.44,235.35-35.11,297.23,216.62,198.55,357.58-119.29,170.41,354.33,196.66,111.71,551.57H144.18Z"></path><g><g><polygon fill="#8c9df4" points="1032.82 1026.1 550.98 1026.1 583.23 903.93 1002.21 903.93 1032.82 1026.1"></polygon><ellipse fill="#6980e2" ry="15.39" rx="209.46" cy="903.93" cx="792.75"></ellipse></g><g><path fill="#f78248" d="M898.38,992.81c0,5.76-4.83,10.44-10.8,10.44s-10.8-4.67-10.8-10.44,4.83-10.44,10.8-10.44,10.8,4.67,10.8,10.44Z"></path><path fill="#aec3ff" d="M940.5,992.81c0,5.76-4.83,10.44-10.8,10.44s-10.8-4.67-10.8-10.44,4.83-10.44,10.8-10.44,10.8,4.67,10.8,10.44Z"></path><path fill="#213f7a" d="M982.6,992.81c0,5.76-4.83,10.44-10.8,10.44s-10.8-4.67-10.8-10.44,4.83-10.44,10.8-10.44,10.8,4.67,10.8,10.44Z"></path></g></g><g><path fill="#233862" d="M193.17,1023.42h29.03c-.22-1.47-.96-5.95-2.32-10.07-.47-1.44-1.02-2.83-1.64-4.04-2.82-5.45-20.76-1.98-20.76-1.98,0,0-1.66,1.38-2.97,6.65-.58,2.32-1.08,5.4-1.35,9.45Z"></path><path fill="#8c9df4" d="M246.46,594.78s23.13,3.93,28.36,17.13c5.23,13.2,34.78,226.39,34.78,226.39,0,0-14.63,11.21-46.04,7.18-31.41-4.02-17.1-250.7-17.1-250.7Z"></path><path fill="#233862" d="M280.89,1014.56c.08,3.82,.58,7.43,2.01,8.86h57.42c-.73-2.01-2.8-5.03-8.69-5.95-6.7-1.05-17.14-4.16-23.24-10.39-2.17-2.21-3.79-4.82-4.5-7.87-2.7-11.63-22.34,3.56-22.34,3.56,0,0-.79,6.12-.67,11.81Z"></path><path fill="#ed7d2b" d="M305.62,1008.91c-6.42,1.98-18.68,8.02-26.47,5.18-5.03-1.83-33.18-80.53-35-114.95-.13-2.5-.64-5.99-1.44-10.25-1.67-8.88-4.58-21.09-7.94-34.56-9.01-36.09-21.19-81.25-20.92-95.68,.41-22.4,69.06-4.69,69.06-4.69,0,0,4.72,18.37,5.66,44.98,1.86,52.8,6.99,142,20.93,203.94,.59,2.63-1.21,5.22-3.87,6.04Z"></path><path fill="#f99746" d="M257.97,758.72l-36.29,254.25s-15.94,3.71-28.33,.74c0,0-10.62-135.22-9.74-167.91,.89-32.69-7.62-87.48,1.94-93.52,9.57-6.04,72.42,6.44,72.42,6.44Z"></path><path fill="#fff" d="M180.97,606.43s38.14-23.84,65.49-11.65c4.36,1.94,9.33,7.36,12.89,11.16,9.89,10.53,29.21,177.84,29.21,177.84,0,0-54.85,17.95-107.59-6.09v-171.25Z"></path><path fill="#8c9df4" d="M248.63,594.18s38.61,15.3,43.84,27.05c5.23,11.75,22.23,83.92,22.23,92.38s-29.59,1.89-34.36-11.76c-3.96-11.33-17.3-46.15-24.34-68.18l-7.37-39.5Z"></path><g><path fill="#ffb27d" d="M240.61,605.83c-8.43,1.6-20.81-.11-29.88-5.88,4.09-9.45,5.77-16.91,6.37-21.74,.03-.26,.06-.51,.09-.75,.27-2.5,.23-4.2,.1-4.98h21.79s5.96,2.63,5.96,4.45c0,.97,0,1.9,.03,2.79,.04,2.42,.14,4.54,.27,6.35,.41,5.91,1.12,8.69,1.12,8.69,0,0,2.66,9.44-5.85,11.05Z"></path><path fill="#e2915a" d="M245.34,586.09c-16.51,3.08-26.09-5.64-28.24-7.87-.3-.32-.46-.51-.46-.51,.18-.08,.36-.16,.55-.24,6.15-2.41,20.09-.49,27.88,2.27,.04,2.42,.14,4.54,.27,6.35Z"></path><path fill="#ffb27d" d="M211.71,569.03c2.95,15.35,23.44,14.84,32.29,13.88,2.49-.27,4.06-.58,4.06-.58,2.81-.73,4.38-5,5.11-10.61,1.45-11.09-.38-27.37-2.32-31.53-2.92-6.26-8.41-13.04-29.04-8.15-20.63,4.89-13.88,17.32-10.1,36.98Z"></path><path fill="#233862" d="M251.62,531.63c-2.82-3.77-8.8-8.38-14.23-11.22-11.67-6.1-26.6,.19-26.66,.22-16.85,7.16-21.25,19.62-12.32,39.04,9.45,20.53,18.44,18.22,18.44,18.22,0,0-1.91-1.15-1.74-7.55,.01-.36,.03-.67,.04-.93,.09-1.31-.39-2.63-1.41-3.5-2.09-1.81-3.11-7.27-1.36-8.79,2.11-1.83,5.09,.39,6.04,2.11,.83,1.21,2.31,1.63,3.7,.79,5.25-3.21,1.84-9.62,6.85-13.54,5.01-3.92,15.18-.63,22.7-3.75,9.84-3.54,2.06-8.25-.06-11.09Z"></path></g><path fill="#8c9df4" d="M253.96,853.96c-3.32,.83-6.61,1.5-9.88,2.03-2.89,.48-5.77,.83-8.65,1.07-16.32,1.37-32.72-.85-51.88-6.16-4.31-1.2-8.77-2.55-13.4-4.06-.49-.16,1.26-49.14,3.28-99.66,.21-5.21,.42-10.45,.63-15.65,.09-2.2,.18-4.39,.27-6.58,1.83-44.68,3.65-85.04,4.04-87.21,.88-4.92,1.7-9.11,2.59-12.74,2.61-10.59,5.85-16.39,12.92-21.38,.69-.51,6.34-3.26,11.33-5.66,4.13-1.98,7.8-3.72,7.8-3.72h0c1.64,.78,3.62,4.42,5.68,9.53,3.8,9.42,7.89,23.84,10.74,34.62,0,.03,.01,.05,.01,.05h0c1.83,6.96,3.15,12.38,3.53,13.93,.64,2.62,1.48,7.7,2.47,14.59,1.34,9.37,2.95,22.1,4.64,36.53,.17,1.48,.35,2.99,.52,4.5,.2,1.73,.41,3.48,.61,5.25,.07,.57,.13,1.14,.19,1.71,.65,5.72,1.31,11.62,1.97,17.62,.54,4.96,8.32,8.54,8.86,13.59,.31,2.96,.96,30.28,1.79,39.01,.6,6.23,.17,65.87-.06,68.8Z"></path><path fill="#6980e2" d="M197.68,655.75c-.02,.1-1.32,45.18,33.76,50.66,35.08,5.48,11.77,6.92,11.77,6.92,0,0-66.01-2.71-67.1-4.4-1.09-1.68,21.56-53.19,21.56-53.19Z"></path><path fill="#6980e2" d="M227.32,725.76s-.66,.45-1.92,1.24c-.02,0-.04,.02-.07,.04-5.35,3.3-21.24,12.31-44.37,18.34-2.43,.64-4.94,1.24-7.52,1.79,.21-5.21,.42-10.45,.63-15.65-3.06-.23-5.98-.61-8.69-1.16,.09-.69,.19-1.37,.28-2.06,2.94-1.17,5.87-2.29,8.69-3.36,2.3-.87,4.52-1.69,6.62-2.46,9.5-3.49,16.54-5.85,16.54-5.85l28.12,8.61,1.69,.52Z"></path><path fill="#8c9df4" d="M234.76,725.01s-3.61,.87-9.37,1.99c-.02,0-.04,0-.06,.01-10.61,2.06-28.44,4.95-44.37,4.79-2.35-.03-4.66-.11-6.89-.28-3.06-.23-5.98-.61-8.69-1.16-5.82-1.19-10.7-3.2-13.89-6.34-23.69-23.33,12.93-107.06,20.63-115.21,8.99-9.51,25.4-12.85,34.46-13.99,.38-.05,.74-.09,1.09-.14,3.19-.37,5.23-.44,5.34-.45h0s-.71,2.21-1.9,5.95c-.46,1.45-1,3.13-1.59,5.01-5.57,17.62-16.3,52.24-21.04,71.77-1.73,7.15-2.66,12.27-2.24,13.8,1.85,6.67,20.99,10.1,33.12,11.61,5.06,.63,8.9,.93,9.76,.99,.06,0,.12,0,.18,.01l.7,2.78,1.68,6.67,1.65,6.55,1.42,5.63Z"></path><polygon fill="#233862" points="300.85 765.14 219.47 761.83 235.98 663.8 317.36 667.11 300.85 765.14"></polygon><path fill="#ffb27d" d="M229.31,703.38s15.84-1.07,16.64,2.5c1.85,8.32-13.62,15.15-18.63,14.68s-1.65-17.74,2-17.19Z"></path><path fill="#ffb27d" d="M312.91,687.02s-15.15-4.58-16.78-1.29c-3.79,7.68,9.62,17.79,14.61,18.45,4.99,.67,5.85-16.89,2.17-17.17Z"></path><path fill="#6980e2" d="M214.66,589.31s-6.66,3.07-10.01,7.7c0,0,24.91,41.81,24.8,41.42-.11-.39-8.42-43.77-14.79-49.12Z"></path><path fill="#6980e2" d="M245.69,589.9c2.19,.8,6.4,4.97,7.35,7.27l2.96,36.5s-6.32-26.79-9.54-38.89c-.82-3.08-.67-4.01-.77-4.88Z"></path><path fill="#c65447" d="M262.96,664.9s.64-2.72,4.35-2.4c3.7,.32,24.51,1.31,24.51,1.31,0,0,4.01-.06,3.64,2.42l-32.5-1.32Z"></path></g><g><g><g><g opacity=".4"><path fill="#8c9df4" d="M1274.28,1026.91h-.24c-1.99-.04-3.52-1.67-3.34-3.54l13.26-132.82,11.57,1.03-19.04,133.53c-.15,1.04-1.1,1.82-2.21,1.8Z"></path><path fill="#8c9df4" d="M1401.95,1026.91h.24c1.99-.04,3.52-1.67,3.33-3.54l-13.26-132.82-11.57,1.03,19.04,133.53c.15,1.04,1.1,1.82,2.21,1.8Z"></path><path fill="#8c9df4" d="M1398,871.92l23.53-112.35c3.02-15.21-10.02-29.12-26.95-28.75l-45.39,1c-15.66,.35-29.27,10.48-33.62,25.02l-34.43,115.07h116.86Z"></path><path fill="#8c9df4" d="M1383.76,871.92l23.54-112.35c3.02-15.21-10.02-29.12-26.95-28.75l-45.39,1c-15.66,.35-29.27,10.48-33.62,25.02l-34.43,115.07h116.86Z"></path><path fill="#8c9df4" d="M1214.7,871.92h183.29v11.09c0,5.19-4.21,9.4-9.4,9.4h-173.89c-5.19,0-9.4-4.21-9.4-9.4v-1.69c0-5.19,4.21-9.4,9.4-9.4Z"></path><path fill="#8c9df4" d="M1194.98,871.92h109.9c4.18,0,7.57,3.39,7.57,7.57v5.34c0,4.18-3.39,7.57-7.57,7.57h-109.9c-4.18,0-7.57-3.39-7.57-7.57v-5.34c0-4.18,3.39-7.57,7.57-7.57Z"></path></g><g><path fill="#a9453d" d="M1301.7,636s5.34-15.94,28.8-15.21c0,0,4.69-8.53,15.96-7.08,11.26,1.45,17.46,40.83,6.76,50.45-10.7,9.62-17.34,9.91-17.34,9.91l-34.18-36.58v-1.48Z"></path><path fill="#abddda" d="M1308,756.5l-19.07,46.66s-18.38,20.94-33.15,14.19l46.74-87.74,5.48,26.9Z"></path><path fill="#ffb27d" d="M1178.39,1012.84c.55,5.16-6.87,6.49-15.47,6.99-8.6,.5-5.98,2.18-17.76,4.37-11.77,2.19-16.54-.88-17.41-2.42-.78-1.36,4.69-3.55,10.5-6.03,.73-.31,1.47-.63,2.2-.95,6.55-2.86,10.18-8.61,15.25-13.95,4.8-5.06,9.24-21.14,9.24-21.14l15.99-3.48s-4.34,14.48-5.84,20.66c-.88,3.63,.52,7.67,1.76,10.74,.67,1.67,1.34,3.38,1.53,5.2Z"></path><path fill="#0f2549" d="M1162.92,1019.83c-8.6,.5-5.98,2.18-17.76,4.37-11.77,2.19-16.54-.88-17.41-2.42-.78-1.36,4.69-3.55,10.5-6.03l.09,.09s8.33,2.64,17.87,.02c7.78-2.13,15.28-6.72,20.64-8.23,.67,1.67,1.34,3.38,1.53,5.2,.55,5.16-6.87,6.49-15.47,6.99Z"></path><path fill="#ed7d2b" d="M1202.62,833.72c8.61-5.84,64.44-31.47,93.5-34.48l33.21-11.73s27.33,39.13,27.55,69.07c.1,13.96-6.55,15.35-6.55,15.35,0,0-102.94,.74-107.45,1.19-7.39,.74-17.13,18.52-19.56,34.72-2.44,16.2-45.36,82.09-45.36,82.09,0,0-8.95,2.77-13.09,2.54-4.45-.25-6.51-1.69-6.51-1.69,0,0,24.87-143.88,44.28-157.05Z"></path><path fill="#ffb27d" d="M1205.02,1012.84c.55,5.16-6.87,6.49-15.47,6.99-8.6,.5-5.98,2.18-17.76,4.37-11.77,2.19-12.72-5.97-6.9-8.45,.73-.31,1.47-.63,2.2-.95,6.55-2.86,10.17-8.61,15.25-13.95,4.8-5.06,9.24-21.14,9.24-21.14l15.99-3.48s-4.34,14.48-5.84,20.66c-.88,3.63,.52,7.67,1.76,10.74,.67,1.67,1.34,3.38,1.53,5.2Z"></path><path fill="#233862" d="M1189.54,1019.83c-8.6,.5-5.98,2.18-17.76,4.37-11.77,2.19-16.54-.88-17.41-2.42-.78-1.36,4.69-3.55,10.5-6.03l.09,.09s8.32,2.64,17.87,.02c7.78-2.13,15.28-6.72,20.64-8.23,.67,1.67,1.34,3.38,1.53,5.2,.55,5.16-6.87,6.49-15.47,6.99Z"></path><path fill="#f99746" d="M1229.48,833.72c7.47-5.07,26.29-7.38,53.63-15.99,6.58-2.07,31.94-13.89,33.62-20.38l-12.51-5.58,51.96-4.26s13.15,24.63,13.36,54.57c.1,13.96-12.67,29.85-12.67,29.85,0,0-82.63,.74-87.14,1.19-7.39,.74-17.13,18.52-19.56,34.72-2.43,16.2-45.36,82.09-45.36,82.09,0,0-8.95,2.77-13.09,2.54-4.45-.25-6.51-1.69-6.51-1.69,0,0,24.87-143.88,44.28-157.05Z"></path><path fill="#ffb27d" d="M1311.64,705.45c-.1,.05,10.43,4.68,18.03,2.25,7.15-2.28,13.45-12.69,13.35-12.7-3.1-.43-6.26-3.4-7.14-20.94l-1.37,.33-23.11,5.65s.91,7.08,1.29,13.77c.32,5.62,.25,10.97-1.05,11.63Z"></path><path fill="#ed975d" d="M1311.39,680.05s0,1.46,.86,8.04c13.07-3.19,18.84-7.38,22.9-12.17l-23.76,4.13Z"></path><path fill="#ffb27d" d="M1306.46,680.94s30.56,4.81,33.37-13.63c2.81-18.45,8.64-30.25-10.75-34.1-19.4-3.85-24.27,2.65-26.75,8.58-2.48,5.94-3.74,37.42,4.14,39.15Z"></path><path fill="#a9453d" d="M1306.43,632.43s13.88,21.18,26.27,26.19c12.39,5.02,18.48,2.47,18.48,2.47,0,0-5.64-8.26-7.11-19.36-.43-3.27-2.64-6.07-5.8-7.3-8.89-3.44-26.09-8.87-31.84-2.01Z"></path><path fill="#a9453d" d="M1318.63,634.48s-8.14,4.03-11.49,7.81c-3.23,3.65-6.97,13.54-6.7,17.98,0,0-4.01-21.29,4.35-28.61,8.86-7.76,13.84,2.82,13.84,2.82Z"></path><path fill="#2b478b" d="M1287.19,750.51c.93,60.05-21.97,43.24-15.17,48.94,1.64,1.37,8.34,11.59,33.61,12.81,19.07,.92,53.45-7.78,54.72-11.19,4.39-11.77,1.29-15.43,4.96-33.46,.38-1.92,.85-3.99,1.41-6.25,3.06-12.38,6.03-16.59-4.81-36.49-9.83-18.02-21.4-32.66-22.32-32.13-25.95,14.89-26.83,2.41-26.83,2.41,0,0-26.02,26.06-25.56,55.35Z"></path><path fill="#8c9df4" d="M1312.75,695.16s-26.55,4.35-29.69,15.46c-3.14,11.11-37.39,98.64-37.39,98.64,0,0,30.9,6.06,37.17,0,6.27-6.06,20.3-82.14,20.3-82.14l9.61-31.96Z"></path><path fill="#6980e2" d="M1312.52,691.24l.24,3.92c-3.02,10.03-10.42,43.81-16.77,67.79l-2.15-37.12,3.66-2.89-1.37-4.86,11.97-21.96,4.43-4.88Z"></path><path fill="#8c9df4" d="M1312.75,856.1c40.97,13.25,73.41,4.35,73.41,4.35l-6.69-38.28-3.65-20.87-7.83-44.8-13.38-42.61-11.71-6.85-10.23,49.46-19.91,99.6Z"></path><path fill="#6980e2" d="M1362.14,761.15c.69,1.04,.72,21.39-19.12,26.37-19.84,4.98,29.05,9.83,29.05,9.83,0,0,15.76-11.69,15.53-14.56-.23-2.87-25.46-21.63-25.46-21.63Z"></path><path fill="#6980e2" d="M1325.98,805.47s27.18,15.04,53.49,16.7l-3.65-20.87-49.84,4.17Z"></path><g><path fill="#ffb27d" d="M1308.19,802.39s-2.25,5.82-3.3,6.75c-1.05,.93-1.89,1.03-1.89,1.03l1.12-5.17,4.08-2.61Z"></path><path fill="#ffb27d" d="M1307.5,797.3l-9.28,8.42s.7,.6,2.03,.13c1.33-.46,4.34-2.69,4.34-2.69l2.92-5.87Z"></path><path fill="#ffb27d" d="M1329.09,793.36s-19.19,1.53-21.59,3.94c-2.4,2.41-7.67,10.14-7.93,12.36-.26,2.22,5.97-3.42,8.16-4.75,1.42-.86,5.92-.72,8.14-.68,9.35,.18,14.09-2.78,14.09-2.78l-.86-8.09Z"></path></g><path fill="#8c9df4" d="M1339.59,692.75s26.6,1.5,35.34,13.28c12.3,16.58,36.69,87.24,22.71,96.66-15.74,10.61-71.66,2.78-71.66,2.78,0,0-1.86-8.41,.73-12.47,2.59-4.07,44.66-10.64,46.6-12.51,1.94-1.88-24.27-36.6-24.27-42.23s-9.45-45.5-9.45-45.5Z"></path><path fill="#6980e2" d="M1338.06,689.45l-5.39,67.05,12.34-25.67-2.11-4.57s4.51-7.51,4.51-8.39-1.28-24.39-1.28-24.39l-8.06-4.02Z"></path></g></g><g><polygon fill="#142d5e" points="1177.42 793.63 1285.24 793.63 1265.65 723.59 1157.82 723.59 1177.42 793.63"></polygon><polygon fill="#2b478b" points="1174.01 793.63 1281.83 793.63 1262.24 723.59 1154.42 723.59 1174.01 793.63"></polygon><polygon fill="#142d5e" points="1219.94 810.62 1242.55 810.82 1226.89 764.7 1204.29 764.5 1219.94 810.62"></polygon><rect fill="#142d5e" transform="translate(2463.64 1619.45) rotate(180)" height="2.2" width="49.38" y="808.62" x="1207.13"></rect></g><rect fill="#233862" transform="translate(2578.75 1618.1) rotate(180)" height="4.58" width="35.41" y="806.76" x="1271.67"></rect></g><g><g><path fill="#4c64a5" d="M1441.33,1024.96c-1.36,0-2.53-.88-2.76-2.08l-13.52-70.54-19.45-101.46-5.44-28.37,13.86-.36,2.4,16.47,16.88,115.74,10.01,68.6c.15,1.06-.77,2.01-1.97,2.01Z"></path><path fill="#4c64a5" d="M1416.41,838.61c-8.98,3.65-10.82,12.27-10.82,12.27l-5.9-30.08,14.31,1.34,2.4,16.47Z"></path></g><g><path fill="#4c64a5" d="M1058.38,1024.26c1.36,0,2.53-.88,2.76-2.08l13.53-70.3,19.45-101.11,5.44-28.27-13.86-.36-2.4,16.41-16.88,115.34-10.01,68.37c-.15,1.06,.77,2,1.97,2Z"></path><path fill="#4c64a5" d="M1083.3,838.55c8.98,3.63,10.82,12.22,10.82,12.22l8.03-28.99-16.45,.35-2.4,16.41Z"></path></g><path fill="#4c64a5" d="M1056.26,810.82h396.84c3.12,0,5.66,2.54,5.66,5.66h0c0,3.12-2.54,5.66-5.66,5.66h-396.84c-3.12,0-5.66-2.54-5.66-5.66h0c0-3.12,2.54-5.66,5.66-5.66Z"></path></g></g><path fill="#f5f9fd" d="M629.85,903.93L447.33,249.37s314.4-200.17,653.66,0l-154.55,654.57h-316.59Z"></path><path fill="#8c9df4" d="M923.22,748.75s-6.12-99.9,6.56-130.55c12.68-30.64,139.48-204.29,52.84-312.56-86.65-108.27-257.83-79.67-331.8-36.77s-23.25,128.7-52.84,169.56c-29.59,40.86-58.94,64.52-42.04,73.71,16.9,9.19,40.15,6.13,40.15,25.53s-8.06,24.8,.4,37.51c8.45,12.71-2.82,12.26,2.82,23.15,5.64,10.89,7.81,9.59,5.87,12.82-1.94,3.23-12.68,22.13-8.45,36.43,4.23,14.3,30.29,19.75,65.51,17.02,35.22-2.72,57.06-6.13,59.17,11.58,2.11,17.7,3.46,72.57,3.46,72.57,0,0,196.14-.77,198.37,0Z"></path><path fill="#f77d48" d="M910.58,587.55s104.68-138,60.68-230.92c-43.99-92.91-157.77-112.04-235.14-101.11-77.37,10.93-97.09,46.46-80.4,76.52,16.69,30.06,18.2,75.15,63.72,98.38,45.51,23.23,96.78,23.97,103.61,54.72,6.83,30.74,35.14,126.95,87.54,102.42Z"></path><path fill="#8c9df4" d="M923.22,748.75c0,4.02-44.41,7.29-99.18,7.29s-99.18-3.26-99.18-7.29,44.41-7.29,99.18-7.29,99.18,3.26,99.18,7.29Z"></path><ellipse fill="#f5f9fd" ry="11.61" rx="158.21" cy="903.93" cx="788.06"></ellipse><g><g><polygon fill="#ebf3fa" points="928.51 330.54 848.11 330.54 822.19 305.49 735.41 305.49 735.41 302.36 823.54 302.36 849.45 327.4 928.51 327.4 928.51 330.54"></polygon><path fill="#ebf3fa" d="M733.05,303.92c0-1.26,1.06-2.28,2.36-2.28s2.36,1.02,2.36,2.28-1.06,2.28-2.36,2.28-2.36-1.02-2.36-2.28Z"></path><path fill="#ebf3fa" d="M926.34,328.97c0-1.16,.97-2.1,2.17-2.1s2.17,.94,2.17,2.1-.97,2.1-2.17,2.1-2.17-.94-2.17-2.1Z"></path></g><g><polygon fill="#ebf3fa" points="928.6 340.68 848.2 340.68 822.29 315.64 735.51 315.64 735.51 312.5 823.63 312.5 849.55 337.55 928.6 337.55 928.6 340.68"></polygon><path fill="#ebf3fa" d="M733.14,314.07c0-1.26,1.06-2.28,2.36-2.28s2.36,1.02,2.36,2.28-1.06,2.28-2.36,2.28-2.36-1.02-2.36-2.28Z"></path><path fill="#ebf3fa" d="M926.43,339.12c0-1.16,.97-2.1,2.17-2.1s2.17,.94,2.17,2.1-.97,2.1-2.17,2.1-2.17-.94-2.17-2.1Z"></path></g><g><polygon fill="#ebf3fa" points="928.6 351.2 848.2 351.2 822.29 326.15 735.51 326.15 735.51 323.02 823.63 323.02 849.54 348.07 928.6 348.07 928.6 351.2"></polygon><path fill="#ebf3fa" d="M733.14,324.59c0-1.26,1.06-2.28,2.36-2.28s2.36,1.02,2.36,2.28-1.06,2.28-2.36,2.28-2.36-1.02-2.36-2.28Z"></path><path fill="#ebf3fa" d="M926.43,349.64c0-1.16,.97-2.1,2.17-2.1s2.17,.94,2.17,2.1-.97,2.1-2.17,2.1-2.17-.94-2.17-2.1Z"></path></g><g><polygon fill="#ebf3fa" points="806.26 427.37 803.03 427.37 803.03 373.78 791.74 362.87 736.72 362.87 736.72 359.74 793.08 359.74 806.26 372.48 806.26 427.37"></polygon><path fill="#ebf3fa" d="M736.11,359.02c1.3,0,2.36,1.02,2.36,2.28s-1.06,2.28-2.36,2.28-2.36-1.02-2.36-2.28,1.06-2.28,2.36-2.28Z"></path><path fill="#ebf3fa" d="M802.28,426.85c0-1.26,1.06-2.28,2.36-2.28s2.36,1.02,2.36,2.28-1.06,2.28-2.36,2.28-2.36-1.02-2.36-2.28Z"></path></g><g><polygon fill="#ebf3fa" points="816.39 438.46 813.15 438.46 813.15 369.7 796.64 353.74 737.87 353.74 737.87 350.61 797.98 350.61 816.39 368.4 816.39 438.46"></polygon><path fill="#ebf3fa" d="M736.11,349.89c1.3,0,2.36,1.02,2.36,2.28s-1.06,2.28-2.36,2.28-2.36-1.02-2.36-2.28,1.06-2.28,2.36-2.28Z"></path><path fill="#ebf3fa" d="M812.41,438.46c0-1.26,1.06-2.28,2.36-2.28s2.36,1.02,2.36,2.28-1.06,2.28-2.36,2.28-2.36-1.02-2.36-2.28Z"></path></g><g><polygon fill="#ebf3fa" points="828.8 451.77 825.56 451.77 825.56 362.39 803.92 341.47 735.41 341.47 735.41 338.34 805.26 338.34 828.8 361.1 828.8 451.77"></polygon><path fill="#ebf3fa" d="M733.75,339.91c0-1.26,1.06-2.28,2.36-2.28s2.36,1.02,2.36,2.28-1.06,2.28-2.36,2.28-2.36-1.02-2.36-2.28Z"></path><path fill="#ebf3fa" d="M826.08,449.68c1.19-.51,2.59,.01,3.12,1.16,.53,1.15-.01,2.5-1.2,3.01-1.19,.51-2.59-.01-3.12-1.17-.53-1.15,.01-2.5,1.2-3.01Z"></path></g><polygon fill="#ebf3fa" points="842.58 472.77 839.34 472.77 839.34 366.72 848.92 357.46 928.51 357.46 928.51 360.59 850.26 360.59 842.58 368.01 842.58 472.77"></polygon><polygon fill="#ebf3fa" points="852.42 484.12 849.18 484.12 849.18 374.66 857.42 366.7 928.51 366.7 928.51 369.83 858.76 369.83 852.42 375.96 852.42 484.12"></polygon><polygon fill="#ebf3fa" points="863.76 484.12 861.33 484.12 861.33 378.84 928.51 378.84 928.51 381.18 863.76 381.18 863.76 484.12"></polygon><path fill="#ebf3fa" d="M926.15,359.02c0-1.26,1.06-2.28,2.36-2.28s2.36,1.02,2.36,2.28-1.06,2.28-2.36,2.28-2.36-1.02-2.36-2.28Z"></path><path fill="#ebf3fa" d="M928.51,365.99c1.3,0,2.36,1.02,2.36,2.28s-1.06,2.28-2.36,2.28-2.36-1.02-2.36-2.28,1.06-2.28,2.36-2.28Z"></path><path fill="#ebf3fa" d="M928.51,377.73c1.3,0,2.36,1.02,2.36,2.28s-1.06,2.28-2.36,2.28-2.36-1.02-2.36-2.28,1.06-2.28,2.36-2.28Z"></path><path fill="#ebf3fa" d="M860.18,484.12c0-1.26,1.06-2.28,2.36-2.28s2.36,1.02,2.36,2.28-1.06,2.28-2.36,2.28-2.36-1.02-2.36-2.28Z"></path><path fill="#ebf3fa" d="M848.44,484.12c0-1.26,1.06-2.28,2.36-2.28s2.36,1.02,2.36,2.28-1.06,2.28-2.36,2.28-2.36-1.02-2.36-2.28Z"></path><path fill="#ebf3fa" d="M838.6,472.77c0-1.26,1.06-2.28,2.36-2.28s2.36,1.02,2.36,2.28-1.06,2.28-2.36,2.28-2.36-1.02-2.36-2.28Z"></path><polygon fill="#ebf3fa" points="953.53 475.05 950.29 475.05 950.29 419.89 925.48 395.9 874.36 395.9 874.36 392.77 926.82 392.77 953.53 418.6 953.53 475.05"></polygon><polygon fill="#ebf3fa" points="940.21 502.41 936.97 502.41 936.97 425.98 918.07 407.71 874.36 407.71 874.36 404.57 919.41 404.57 940.21 424.68 940.21 502.41"></polygon><polygon fill="#ebf3fa" points="929.29 502.41 926.05 502.41 926.05 430.59 912.46 417.46 874.36 417.46 874.36 414.33 913.81 414.33 929.29 429.29 929.29 502.41"></polygon><polygon fill="#ebf3fa" points="916.25 519.26 913.01 519.26 913.01 437.66 905.8 430.69 878.56 430.69 878.56 502.41 875.32 502.41 875.32 427.56 907.14 427.56 916.25 436.36 916.25 519.26"></polygon><polygon fill="#ebf3fa" points="902.63 521.37 899.39 521.37 899.39 440.02 891.27 440.02 891.27 519.26 888.04 519.26 888.04 436.89 902.63 436.89 902.63 521.37"></polygon><polygon fill="#ebf3fa" points="789.71 424.56 786.47 424.56 786.47 387.25 718 387.25 718 384.12 789.71 384.12 789.71 424.56"></polygon><polygon fill="#ebf3fa" points="775.87 420.23 772.63 420.23 772.63 398.98 723.55 398.98 723.55 395.84 775.87 395.84 775.87 420.23"></polygon><polygon fill="#ebf3fa" points="763.87 420.23 760.63 420.23 760.63 410.39 744.06 410.39 744.06 407.26 763.87 407.26 763.87 420.23"></polygon><polygon fill="#ebf3fa" points="714.43 374.62 692.59 374.62 692.59 371.49 713.09 371.49 721.93 362.94 721.93 289.67 725.17 289.67 725.17 364.24 714.43 374.62"></polygon><polygon fill="#ebf3fa" points="711.24 362.87 690.27 362.87 690.27 359.74 708 359.74 708 291.16 711.24 291.16 711.24 362.87"></polygon><rect fill="#ebf3fa" height="53.12" width="3.24" y="296.77" x="692.9"></rect><polygon fill="#ebf3fa" points="892.29 311.81 850.21 311.81 828.92 291.23 735.41 291.23 735.41 288.1 830.26 288.1 851.55 308.68 892.29 308.68 892.29 311.81"></polygon><polygon fill="#ebf3fa" points="881.45 295.35 858.34 295.35 847.41 284.79 849.7 282.57 859.68 292.22 881.45 292.22 881.45 295.35"></polygon><polygon fill="#ebf3fa" points="833.86 353.27 815.97 335.66 818.29 333.46 836.17 351.08 833.86 353.27"></polygon><path fill="#ebf3fa" d="M846.3,283.68c0-1.21,1.01-2.18,2.26-2.18s2.26,.98,2.26,2.18-1.01,2.18-2.26,2.18-2.26-.98-2.26-2.18Z"></path><path fill="#ebf3fa" d="M879.2,293.78c0-1.21,1.01-2.18,2.26-2.18s2.26,.98,2.26,2.18-1.01,2.18-2.26,2.18-2.26-.98-2.26-2.18Z"></path><path fill="#ebf3fa" d="M815.43,334.65c0-1.21,1.01-2.18,2.26-2.18s2.26,.98,2.26,2.18-1.01,2.18-2.26,2.18-2.26-.98-2.26-2.18Z"></path><path fill="#ebf3fa" d="M832.75,352.17c0-1.21,1.01-2.18,2.26-2.18s2.26,.98,2.26,2.18-1.01,2.18-2.26,2.18-2.26-.98-2.26-2.18Z"></path><path fill="#ebf3fa" d="M721.29,289.67c0-1.21,1.01-2.18,2.26-2.18s2.26,.98,2.26,2.18-1.01,2.18-2.26,2.18-2.26-.98-2.26-2.18Z"></path><path fill="#ebf3fa" d="M690.34,372.86c.11-1.2,1.21-2.08,2.45-1.97,1.24,.11,2.16,1.17,2.04,2.37-.11,1.2-1.21,2.08-2.45,1.97-1.24-.11-2.16-1.17-2.04-2.37Z"></path><path fill="#ebf3fa" d="M688.01,361.31c0-1.21,1.01-2.18,2.26-2.18s2.26,.98,2.26,2.18-1.01,2.18-2.26,2.18-2.26-.98-2.26-2.18Z"></path><path fill="#ebf3fa" d="M707.36,291.6c0-1.21,1.01-2.18,2.26-2.18s2.26,.98,2.26,2.18-1.01,2.18-2.26,2.18-2.26-.98-2.26-2.18Z"></path><path fill="#ebf3fa" d="M692.27,296.77c0-1.2,1.01-2.18,2.26-2.18s2.26,.98,2.26,2.18-1.01,2.18-2.26,2.18-2.26-.98-2.26-2.18Z"></path><path fill="#ebf3fa" d="M692.27,349.64c0-1.21,1.01-2.18,2.26-2.18s2.26,.98,2.26,2.18-1.01,2.18-2.26,2.18-2.26-.98-2.26-2.18Z"></path><path fill="#ebf3fa" d="M742.4,408.82c0-1.21,1.01-2.18,2.26-2.18s2.26,.98,2.26,2.18-1.01,2.18-2.26,2.18-2.26-.98-2.26-2.18Z"></path><path fill="#ebf3fa" d="M759.99,419.48c0-1.21,1.01-2.18,2.26-2.18s2.26,.98,2.26,2.18-1.01,2.18-2.26,2.18-2.26-.98-2.26-2.18Z"></path><path fill="#ebf3fa" d="M721.78,397.41c0-1.21,1.01-2.18,2.26-2.18s2.26,.98,2.26,2.18-1.01,2.18-2.26,2.18-2.26-.98-2.26-2.18Z"></path><path fill="#ebf3fa" d="M771.99,420.23c0-1.21,1.01-2.18,2.26-2.18s2.26,.98,2.26,2.18-1.01,2.18-2.26,2.18-2.26-.98-2.26-2.18Z"></path><path fill="#ebf3fa" d="M785.83,423.85c0-1.21,1.01-2.18,2.26-2.18s2.26,.98,2.26,2.18-1.01,2.18-2.26,2.18-2.26-.98-2.26-2.18Z"></path><path fill="#ebf3fa" d="M715.74,385.69c0-1.21,1.01-2.18,2.26-2.18s2.26,.98,2.26,2.18-1.01,2.18-2.26,2.18-2.26-.98-2.26-2.18Z"></path><rect fill="#ebf3fa" height="3.13" width="54.7" y="371.49" x="728.07"></rect><path fill="#ebf3fa" d="M780.53,373.06c0-1.21,1.01-2.18,2.26-2.18s2.26,.98,2.26,2.18-1.01,2.18-2.26,2.18-2.26-.98-2.26-2.18Z"></path><path fill="#ebf3fa" d="M725.81,373.06c0-1.21,1.01-2.18,2.26-2.18s2.26,.98,2.26,2.18-1.01,2.18-2.26,2.18-2.26-.98-2.26-2.18Z"></path></g><path fill="#2e3552" d="M69.44,1023.42H1617.71c1.26,0,2.29,1.03,2.29,2.29h0c0,1.26-1.03,2.29-2.29,2.29H69.44c-1.26,0-2.29-1.03-2.29-2.29h0c0-1.26,1.03-2.29,2.29-2.29Z"></path><path fill="#8c9df4" d="M1243.48,512.53l10-.61c.83-.04,1.62,.37,2.04,1.07,.53,.89,1.1,1.77,1.72,2.63,1.14,1.6,2.38,3.09,3.72,4.44,.63,.64,.8,1.56,.42,2.35l-4.3,9.23c-.47,.98-.07,2.15,.92,2.69l8.36,4.51c.95,.51,2.13,.25,2.76-.6l5.58-7.6c.53-.75,1.51-1.06,2.43-.78,3.89,1.19,7.96,1.78,12.07,1.75,.99,0,1.88,.66,2.13,1.58l1.48,5.49c.29,1.04,1.34,1.73,2.45,1.57l9.4-1.37c.19-.03,.37-.07,.55-.15,.83-.33,1.37-1.16,1.3-2.05l-.46-7.22-.12-1.76c1.59-.77,3.16-1.66,4.66-2.67,2.02-1.35,3.88-2.86,5.54-4.48,.64-.62,1.59-.81,2.41-.44l7.69,3.35c1.05,.45,2.29,.06,2.84-.91l3.57-6.18,1.02-1.77c.56-.96,.28-2.19-.65-2.83l-6.57-4.52c-.77-.52-1.11-1.44-.84-2.29,.76-2.55,1.25-5.18,1.44-7.82,.03-.23,.04-.44,.06-.67,0-.08,.01-.15,.03-.22,.13-.84,.77-1.52,1.63-1.73l9.21-2.34c.11-.02,.21-.06,.3-.1,.9-.37,1.46-1.31,1.32-2.27l-1.4-9.06c-.17-1.09-1.17-1.88-2.32-1.82l-10.43,.64c-.88,.06-1.71-.41-2.09-1.19-.85-1.69-1.85-3.35-3-4.96-.61-.85-1.25-1.67-1.92-2.46-.54-.64-.66-1.52-.31-2.27l4.13-8.88c.46-.97,.07-2.14-.91-2.67l-8.28-4.45c-1-.54-2.26-.28-2.93,.64l-4.42,6.01c-.59,.81-1.66,1.11-2.61,.75-3.7-1.44-7.62-2.31-11.6-2.59-.94-.05-1.75-.7-1.99-1.59l-2.18-8.03c-.29-1.08-1.38-1.76-2.52-1.61l-9.34,1.35c-1.12,.16-1.93,1.13-1.85,2.21l.02,.42,.54,8.39c.06,.9-.46,1.72-1.31,2.09h0c-2.03,.9-4.01,1.98-5.92,3.26-1.02,.68-1.98,1.4-2.91,2.15-.64,.53-1.54,.66-2.31,.32l-7.81-3.41c-1.07-.47-2.33-.06-2.89,.92l-4.59,7.97c-.13,.23-.21,.47-.25,.71-.12,.78,.21,1.59,.9,2.07l5.26,3.59c.64,.45,.99,1.19,.92,1.93-.02,.19-.07,.39-.14,.58-1.89,4.6-2.8,9.52-2.7,14.48,.03,.84-.49,1.6-1.26,1.95-.11,.05-.23,.09-.35,.12l-7.46,1.89c-1.08,.27-1.78,1.29-1.62,2.37l.03,.21,1.36,8.83c.18,1.11,1.2,1.9,2.36,1.83Zm65.04-24.25c.5,1.4,.88,2.91,1.12,4.51,.45,3.05-.43,7.79-1.98,10.49-.17,.29-.34,.57-.51,.85-10.63,17-35.96,12.3-39.15-7.61-.41-2.6,.12-6.34,1.22-9.17,.26-.65,.54-1.26,.85-1.78,1.43-2.44,3.15-4.47,5.07-6.09,10.98-9.22,28.32-5.2,33.37,8.8Z"></path><g><path fill="#d5dffc" d="M994.17,584.45h112.87c14.64,0,26.53,11.89,26.53,26.53v111.36c0,14.64-11.89,26.53-26.53,26.53h-112.87c-14.64,0-26.53-11.89-26.53-26.53v-111.36c0-14.64,11.89-26.53,26.53-26.53Z"></path><g><path fill="#2a4e96" d="M1100.72,661.31c0,26.75-22.43,48.44-50.11,48.44s-50.11-21.68-50.11-48.44,22.43-48.44,50.11-48.44c3.15,0,6.23,.28,9.21,.82-6.26,22.03-14.56,51.21-15.11,53.03,1.03-1.57,31.51-14.78,52.32-23.68,2.38,5.64,3.69,11.8,3.69,18.26Z"></path><path fill="#f78248" d="M1099.81,637.77c-18.38,7.83-48.82,20.95-49.79,22.43,.53-1.73,8.95-31.32,14.59-51.15,15.62,4.14,28.46,14.78,35.2,28.72Z"></path></g></g><g><path fill="#2a4e96" d="M372.83,330.74h161.17c14.25,0,25.82,11.57,25.82,25.82v69.8c0,14.25-11.57,25.82-25.82,25.82h-161.17c-14.25,0-25.82-11.57-25.82-25.82v-69.8c0-14.25,11.57-25.82,25.82-25.82Z"></path><g><path fill="#c0d4ff" d="M443.4,430.72h-78.69v-24.2h78.69v24.2Zm-77.72-.93h76.76v-22.34h-76.76v22.34Z"></path><g><rect fill="#c0d4ff" height="1.92" width="30.44" y="413.02" x="370.42"></rect><rect fill="#c0d4ff" height="1.92" width="21.6" y="413.02" x="404.06"></rect><rect fill="#c0d4ff" height="1.92" width="16.8" y="418.5" x="370.42"></rect><rect fill="#c0d4ff" height="1.92" width="21.6" y="418.5" x="390.06"></rect><rect fill="#c0d4ff" height="1.92" width="21.6" y="418.5" x="413.89"></rect></g></g><g><path fill="#c0d4ff" d="M537.23,430.72h-78.69v-24.2h78.69v24.2Zm-77.72-.93h76.76v-22.34h-76.76v22.34Z"></path><g><rect fill="#c0d4ff" height="1.92" width="30.44" y="413.02" x="464.25"></rect><rect fill="#c0d4ff" height="1.92" width="21.6" y="413.02" x="497.89"></rect><rect fill="#c0d4ff" height="1.92" width="16.8" y="418.5" x="464.25"></rect><rect fill="#c0d4ff" height="1.92" width="21.6" y="418.5" x="483.88"></rect><rect fill="#c0d4ff" height="1.92" width="21.6" y="418.5" x="507.72"></rect></g></g><g><path fill="#c0d4ff" d="M542.12,396.92h-177.41v-13.91h177.41v13.91Zm-175.72-1.63h174.04v-10.65h-174.04v10.65Z"></path><rect fill="#c0d4ff" height="12.28" width="137.71" y="383.83" x="365.56"></rect></g><g><path fill="#c0d4ff" d="M542.12,369.27h-177.41v-13.91h177.41v13.91Zm-175.72-1.63h174.04v-10.65h-174.04v10.65Z"></path><rect fill="#f99746" height="13.91" width="92.25" y="355.36" x="364.72"></rect></g></g><g><path fill="#f99746" d="M549.35,1009.29l-9.14,3.13s-39.69-50.68-44.57-95.28c-.87-7.96-.58-15.68,1.31-22.8,0,0-.39-2.04-1.07-5.65-.31-1.68-.7-3.71-1.14-6.03-1.29-6.81-3.07-16.12-5.1-26.73-4.67-24.41-10.72-55.6-15.42-78.54l2.46-.73,26.64-7.91,5.5-16.1,19.84-4.81s4.43,7.98,8.39,45.69c.73,4.95,1.4,10.4,1.89,16.31,1.54,18.05,1.66,40.44-1.89,66.04-.91,6.55-2.06,13.32-3.48,20.27-1.04,5.1-1.2,12.04-.76,20.02,2,36.45,16.53,93.11,16.53,93.11Z"></path><path fill="#ed7d2b" d="M538.95,809.85l-43.07,78.85c-.31-1.68-.7-3.71-1.14-6.03-1.29-6.81-3.07-16.12-5.1-26.73-4.67-24.41-10.72-55.6-15.42-78.54l2.46-.73,26.64-7.91,5.5-16.1,19.84-4.81s4.43,7.98,8.39,45.69c.73,4.95,1.4,10.4,1.89,16.31Z"></path><path fill="#f99746" d="M520,757.97l-1-7.87c-16.71,4.09-61.34-11.42-61.34-11.42,0,0-16.18,13.1-14.06,44.5,1.04,15.33,2.93,80.45,4.91,99.72,.72,6.99,1.34,11.96,1.6,13.94,0,0,0,.01,0,.02,.08,.61-.15,1.18-.49,1.71-2.91,4.55-5.33,9.29-7.3,14.14-19.42,47.65,2.99,106.33,2.99,106.33l5.82-2.16s12.75-65.31,23.12-94.16c1.76-4.89,3.45-8.74,4.99-11.04,4.5-6.7,8.69-17.64,12.48-30.65,7.17-24.6,12.95-56.6,16.79-81.31,.53,.02,11.49-41.76,11.49-41.76Z"></path><path fill="#1d4677" d="M479.13,1023.42h-46.02s-1.1-6.46,1.3-11.36c2.3-4.7,5.91-6.84,5.05-12.53,2.92,2.77,7.69,5.88,14.34,5.05,.82,1.22,5.26,7.73,7.99,9.53,3.01,1.99,16.42,1.28,17.34,9.3Z"></path><path fill="#1d4677" d="M577.94,1023.42h-46.02s-1.72-6.76,1.3-11.36c2.67-4.07,1.65-6.39-.33-9.75,2.08,.79,4.78,1.5,7.75,1.34,2.29-.12,4.72-1.08,6.84-2.22,1.98,2.08,10.46,10.93,13.11,12.68,3.01,1.99,16.42,1.28,17.34,9.3Z"></path><path fill="#2c3a64" d="M534.37,555.18c-.05-1.15-1.01-13.5-21.45-14.15,0,0,10.05,1.1,11.79,5.17,0,0-6.84-5.03-12.42-3.41-5.57,1.62-8.85,10.61-8.88,13.56-.03,2.96,3.06,12.49,6.6,13.3,1.34,.31,2.88,.23,4.28,0-.94,1.35-1.86,2.84-2.74,4.51-8.15,15.41,.25,30.48,7.16,28.81,4.43-1.07,5.68,5.89,5.68,5.89l43.02-32.07s-15.8-30.1-33.04-21.63Z"></path><path fill="#ffb27d" d="M532.67,666.62c-28.72,1.45-22.41-37.97-20.66-37.77,3.51-1.69,9.82-9.9,13.47-23.63l1.24,.53,20.72,8.97s-2.2,6.21-3.83,12.15c-1.27,4.65-2.18,9.14-1.42,10.4,1.63,.61,2.61,1,2.61,1,0,0,0,0,0,.02,.21,.49-4.49,27.95-12.15,28.33Z"></path><path fill="#8c9df4" d="M456.81,688.62c2.48-7.39,5.03-14.48,7.62-21.03,5.89-14.88,9.64-22.64,12.81-28.66,6.04-11.44,33.06-10.73,33.06-10.73,5.2,17.27,19.5,28.03,19.5,28.03,7.62-4.12,13.3-18.62,13.3-18.62,0,0,18.73,6.91,26.35,22.93,8.19,17.2,17.56,42.91,25.1,50.62,1.76,1.79,6.91,4.51,13.14,7.4h0c.13,.19,.24,.29,.31,.29-.4,.85-2.22,4.84-5.15,8.9-2.38,3.3-5.51,6.63-9.21,8.35-2.84-1.26-7.96-3.12-10.13-4.35-7.86-4.42-19.06-16.95-28.21-30.38l-3.05,37.74-4.62,57.14c-7.1,2.03-13.86,3.62-20.27,4.84-.42-4.79-2.1-10.52-2.1-10.52,.07,3-3.74,8.75-6.01,11.88-58.93,8.69-86.56-14.98-86.56-14.98,2.29-20.95,12.22-63.33,24.11-98.86Z"></path><path fill="#6980e2" d="M602.85,727.76c-2.38,3.3-5.51,6.63-9.21,8.35-2.84-1.26-7.96-3.12-10.13-4.35-7.86-4.42-19.06-16.95-28.21-30.38,.34-4.22,24.35,17.46,27.4,21.4,2.3,2.97,14.18,4.44,20.16,4.99Z"></path><path fill="#ed985f" d="M547.45,614.72s-2.2,6.2-3.83,12.15c-12.11-3.11-15.79-14.84-16.9-21.12l20.73,8.97Z"></path><path fill="#ffb27d" d="M550,621.29s-28.98-6.18-24.53-22.73c4.46-16.56,3.71-28.51,22.41-25.27,18.69,3.24,20.57,10.38,20.55,16.24-.03,5.86-10.77,32.94-18.43,31.76Z"></path><path fill="#2c3a64" d="M570.06,580.13c-3.12-6-6.78-5.68-9.08-4.62-13.62-11.6-26.97-2.12-26.97-2.12-5.14,11.44-16.28,16.11-16.28,16.11,0,0,4.45,4.2,17.36,4.11,3.94-.03,7.9-1.69,11.51-3.99-6.96,6.45-15.11,10.38-15.11,10.38,16.15-2.85,26.98-20.07,28.09-21.89,1.37,1.86,3.99,5.82,4.21,9.17,.3,4.54-1.4,13.37,1.43,13.71,0,0,9.52-11.84,4.85-20.84Z"></path><path fill="#6980e2" d="M516.26,625.02s-4.9,.3-5.95,3.19c0,0,6.4,23.71,19.5,28.03l-13.54-31.22Z"></path><path fill="#6980e2" d="M529.81,656.24s10.79-17.95,12.18-21.54c0,0,5.05,1.81,4.74,4.69,0,0-10.54,15.55-16.91,16.84Z"></path><path fill="#ffb27d" d="M580.53,743.59s6.5-3.15,8.95-4.97c2.45-1.82,2.8-.39,2.12,.85-.78,1.42-1.82,2.72-4.55,4.3-2.73,1.58-7.24,1.05-6.51-.17Z"></path><path fill="#6980e2" d="M496.25,647.8c.35,1.12,44.47,65.98,45.44,78.9,.96,12.92-18.55,5.62-18.86,3.93-.31-1.68-26.58-82.83-26.58-82.83Z"></path><path fill="#6980e2" d="M552.25,739.12l-4.62,57.14c-63.11-16.74-66.59-139.38-66.59-139.38l39.01,64.84,31.85,16.95s.12,.15,.34,.44Z"></path><path fill="#abddda" d="M608.1,718.75c-.02,.07-.05,.1-.09,.1,.02-.05,.04-.09,.05-.12,.06-.1,.07-.1,.04,.02Z"></path><g><path fill="#2a4e96" d="M848.91,713v89.6c0,6.72-5.64,12.17-12.59,12.17h-237.55c-6.95,0-12.59-5.45-12.59-12.17v-89.6c0-6.72,5.63-12.17,12.59-12.17h237.55c6.95,0,12.59,5.45,12.59,12.17Z"></path><g><path fill="#bdd1f9" d="M635.24,724.72l-2.22,.7-.58-2.93,3.65-1.4h1.91v16.39h-2.76v-12.76Z"></path><path fill="#bdd1f9" d="M644.3,729.34c0-4.72,2.29-8.41,5.67-8.41s5.64,3.65,5.64,8.41-2.27,8.41-5.67,8.41-5.64-3.65-5.64-8.41Zm8.44,0c0-2.95-1.13-5.18-2.8-5.18s-2.76,2.16-2.76,5.18,1.11,5.18,2.8,5.18,2.76-2.18,2.76-5.18Z"></path><path fill="#f77d48" d="M661.2,729.34c0-4.72,2.29-8.41,5.67-8.41s5.64,3.65,5.64,8.41-2.27,8.41-5.67,8.41-5.64-3.65-5.64-8.41Zm8.44,0c0-2.95-1.13-5.18-2.8-5.18s-2.76,2.16-2.76,5.18,1.11,5.18,2.8,5.18,2.76-2.18,2.76-5.18Z"></path><path fill="#f77d48" d="M680.28,724.72l-2.22,.7-.58-2.93,3.65-1.4h1.91v16.39h-2.76v-12.76Z"></path><path fill="#bdd1f9" d="M757.25,724.72l-2.22,.7-.58-2.93,3.65-1.4h1.91v16.39h-2.76v-12.76Z"></path><path fill="#bdd1f9" d="M766.31,729.34c0-4.72,2.29-8.41,5.67-8.41s5.64,3.65,5.64,8.41-2.27,8.41-5.67,8.41-5.64-3.65-5.64-8.41Zm8.44,0c0-2.95-1.13-5.18-2.8-5.18s-2.76,2.16-2.76,5.18,1.11,5.18,2.8,5.18,2.76-2.18,2.76-5.18Z"></path><path fill="#f77d48" d="M783.22,729.34c0-4.72,2.29-8.41,5.67-8.41s5.64,3.65,5.64,8.41-2.27,8.41-5.67,8.41-5.64-3.65-5.64-8.41Zm8.44,0c0-2.95-1.13-5.18-2.8-5.18s-2.76,2.16-2.76,5.18,1.11,5.18,2.8,5.18,2.76-2.18,2.76-5.18Z"></path><path fill="#f77d48" d="M802.29,724.72l-2.22,.7-.58-2.93,3.65-1.4h1.91v16.39h-2.76v-12.76Z"></path><path fill="#bdd1f9" d="M689.33,729.34c0-4.72,2.29-8.41,5.67-8.41s5.64,3.65,5.64,8.41-2.27,8.41-5.67,8.41-5.64-3.65-5.64-8.41Zm8.44,0c0-2.95-1.13-5.18-2.8-5.18s-2.76,2.16-2.76,5.18,1.11,5.18,2.8,5.18,2.76-2.18,2.76-5.18Z"></path><path fill="#bdd1f9" d="M706.24,729.34c0-4.72,2.29-8.41,5.67-8.41s5.64,3.65,5.64,8.41-2.27,8.41-5.67,8.41-5.64-3.65-5.64-8.41Zm8.44,0c0-2.95-1.13-5.18-2.8-5.18s-2.76,2.16-2.76,5.18,1.11,5.18,2.8,5.18,2.76-2.18,2.76-5.18Z"></path><path fill="#bdd1f9" d="M723.15,729.34c0-4.72,2.29-8.41,5.67-8.41s5.64,3.65,5.64,8.41-2.27,8.41-5.67,8.41-5.64-3.65-5.64-8.41Zm8.44,0c0-2.95-1.13-5.18-2.8-5.18s-2.76,2.16-2.76,5.18,1.11,5.18,2.8,5.18,2.76-2.18,2.76-5.18Z"></path><path fill="#bdd1f9" d="M740.06,729.34c0-4.72,2.29-8.41,5.67-8.41s5.64,3.65,5.64,8.41-2.27,8.41-5.67,8.41-5.64-3.65-5.64-8.41Zm8.44,0c0-2.95-1.13-5.18-2.8-5.18s-2.76,2.16-2.76,5.18,1.11,5.18,2.8,5.18,2.76-2.18,2.76-5.18Z"></path></g><g><path fill="#bdd1f9" d="M635.24,777.96l-2.22,.7-.58-2.93,3.65-1.4h1.91v16.39h-2.76v-12.76Z"></path><path fill="#bdd1f9" d="M644.3,782.58c0-4.72,2.29-8.41,5.67-8.41s5.64,3.65,5.64,8.41-2.27,8.41-5.67,8.41-5.64-3.65-5.64-8.41Zm8.44,0c0-2.95-1.13-5.18-2.8-5.18s-2.76,2.16-2.76,5.18,1.11,5.18,2.8,5.18,2.76-2.18,2.76-5.18Z"></path><path fill="#f77d48" d="M661.2,782.58c0-4.72,2.29-8.41,5.67-8.41s5.64,3.65,5.64,8.41-2.27,8.41-5.67,8.41-5.64-3.65-5.64-8.41Zm8.44,0c0-2.95-1.13-5.18-2.8-5.18s-2.76,2.16-2.76,5.18,1.11,5.18,2.8,5.18,2.76-2.18,2.76-5.18Z"></path><path fill="#f77d48" d="M680.28,777.96l-2.22,.7-.58-2.93,3.65-1.4h1.91v16.39h-2.76v-12.76Z"></path><path fill="#bdd1f9" d="M757.25,777.96l-2.22,.7-.58-2.93,3.65-1.4h1.91v16.39h-2.76v-12.76Z"></path><path fill="#bdd1f9" d="M766.31,782.58c0-4.72,2.29-8.41,5.67-8.41s5.64,3.65,5.64,8.41-2.27,8.41-5.67,8.41-5.64-3.65-5.64-8.41Zm8.44,0c0-2.95-1.13-5.18-2.8-5.18s-2.76,2.16-2.76,5.18,1.11,5.18,2.8,5.18,2.76-2.18,2.76-5.18Z"></path><path fill="#f77d48" d="M783.22,782.58c0-4.72,2.29-8.41,5.67-8.41s5.64,3.65,5.64,8.41-2.27,8.41-5.67,8.41-5.64-3.65-5.64-8.41Zm8.44,0c0-2.95-1.13-5.18-2.8-5.18s-2.76,2.16-2.76,5.18,1.11,5.18,2.8,5.18,2.76-2.18,2.76-5.18Z"></path><path fill="#f77d48" d="M802.29,777.96l-2.22,.7-.58-2.93,3.65-1.4h1.91v16.39h-2.76v-12.76Z"></path><path fill="#bdd1f9" d="M689.33,782.58c0-4.72,2.29-8.41,5.67-8.41s5.64,3.65,5.64,8.41-2.27,8.41-5.67,8.41-5.64-3.65-5.64-8.41Zm8.44,0c0-2.95-1.13-5.18-2.8-5.18s-2.76,2.16-2.76,5.18,1.11,5.18,2.8,5.18,2.76-2.18,2.76-5.18Z"></path><path fill="#bdd1f9" d="M706.24,782.58c0-4.72,2.29-8.41,5.67-8.41s5.64,3.65,5.64,8.41-2.27,8.41-5.67,8.41-5.64-3.65-5.64-8.41Zm8.44,0c0-2.95-1.13-5.18-2.8-5.18s-2.76,2.16-2.76,5.18,1.11,5.18,2.8,5.18,2.76-2.18,2.76-5.18Z"></path><path fill="#bdd1f9" d="M723.15,782.58c0-4.72,2.29-8.41,5.67-8.41s5.64,3.65,5.64,8.41-2.27,8.41-5.67,8.41-5.64-3.65-5.64-8.41Zm8.44,0c0-2.95-1.13-5.18-2.8-5.18s-2.76,2.16-2.76,5.18,1.11,5.18,2.8,5.18,2.76-2.18,2.76-5.18Z"></path><path fill="#bdd1f9" d="M740.06,782.58c0-4.72,2.29-8.41,5.67-8.41s5.64,3.65,5.64,8.41-2.27,8.41-5.67,8.41-5.64-3.65-5.64-8.41Zm8.44,0c0-2.95-1.13-5.18-2.8-5.18s-2.76,2.16-2.76,5.18,1.11,5.18,2.8,5.18,2.76-2.18,2.76-5.18Z"></path></g><g><path fill="#bdd1f9" d="M692.78,751.35l-2.22,.7-.58-2.93,3.65-1.39h1.91v16.39h-2.76v-12.76Z"></path><path fill="#bdd1f9" d="M681.14,751.35l-2.22,.7-.58-2.93,3.65-1.39h1.91v16.39h-2.77v-12.76Z"></path><path fill="#bdd1f9" d="M701.84,755.98c0-4.72,2.29-8.41,5.67-8.41s5.64,3.65,5.64,8.41-2.27,8.41-5.67,8.41-5.64-3.65-5.64-8.41Zm8.44,0c0-2.95-1.13-5.18-2.8-5.18s-2.76,2.16-2.76,5.18,1.11,5.18,2.8,5.18,2.76-2.18,2.76-5.18Z"></path><path fill="#f77d48" d="M718.75,755.98c0-4.72,2.29-8.41,5.67-8.41s5.64,3.65,5.64,8.41-2.27,8.41-5.67,8.41-5.64-3.65-5.64-8.41Zm8.44,0c0-2.95-1.13-5.18-2.8-5.18s-2.76,2.16-2.76,5.18,1.11,5.18,2.8,5.18,2.76-2.18,2.76-5.18Z"></path><path fill="#f77d48" d="M737.82,751.35l-2.22,.7-.58-2.93,3.65-1.39h1.91v16.39h-2.76v-12.76Z"></path><path fill="#bdd1f9" d="M746.88,755.98c0-4.72,2.29-8.41,5.67-8.41s5.64,3.65,5.64,8.41-2.27,8.41-5.67,8.41-5.64-3.65-5.64-8.41Zm8.44,0c0-2.95-1.13-5.18-2.8-5.18s-2.76,2.16-2.76,5.18,1.11,5.18,2.8,5.18,2.76-2.18,2.76-5.18Z"></path><path fill="#bdd1f9" d="M763.78,755.98c0-4.72,2.29-8.41,5.67-8.41s5.64,3.65,5.64,8.41-2.27,8.41-5.67,8.41-5.64-3.65-5.64-8.41Zm8.44,0c0-2.95-1.13-5.18-2.8-5.18s-2.76,2.16-2.76,5.18,1.11,5.18,2.8,5.18,2.76-2.18,2.76-5.18Z"></path><path fill="#bdd1f9" d="M780.69,755.98c0-4.72,2.29-8.41,5.67-8.41s5.64,3.65,5.64,8.41-2.27,8.41-5.67,8.41-5.64-3.65-5.64-8.41Zm8.44,0c0-2.95-1.13-5.18-2.8-5.18s-2.76,2.16-2.76,5.18,1.11,5.18,2.8,5.18,2.76-2.18,2.76-5.18Z"></path><path fill="#bdd1f9" d="M631.12,755.98c0-4.72,2.29-8.41,5.67-8.41s5.64,3.65,5.64,8.41-2.27,8.41-5.67,8.41-5.64-3.65-5.64-8.41Zm8.44,0c0-2.95-1.13-5.18-2.8-5.18s-2.76,2.16-2.76,5.18,1.11,5.18,2.8,5.18,2.76-2.18,2.76-5.18Z"></path><path fill="#bdd1f9" d="M648.03,755.98c0-4.72,2.29-8.41,5.67-8.41s5.64,3.65,5.64,8.41-2.27,8.41-5.67,8.41-5.64-3.65-5.64-8.41Zm8.44,0c0-2.95-1.13-5.18-2.8-5.18s-2.76,2.16-2.76,5.18,1.11,5.18,2.8,5.18,2.76-2.18,2.76-5.18Z"></path><path fill="#bdd1f9" d="M664.94,755.98c0-4.72,2.29-8.41,5.67-8.41s5.64,3.65,5.64,8.41-2.27,8.41-5.67,8.41-5.64-3.65-5.64-8.41Zm8.44,0c0-2.95-1.13-5.18-2.8-5.18s-2.76,2.16-2.76,5.18,1.11,5.18,2.8,5.18,2.76-2.18,2.76-5.18Z"></path><path fill="#bdd1f9" d="M797.6,755.98c0-4.72,2.29-8.41,5.67-8.41s5.64,3.65,5.64,8.41-2.27,8.41-5.67,8.41-5.64-3.65-5.64-8.41Zm8.44,0c0-2.95-1.13-5.18-2.8-5.18s-2.76,2.16-2.76,5.18,1.11,5.18,2.8,5.18,2.76-2.18,2.76-5.18Z"></path></g></g><path fill="#ffb27d" d="M580.32,744.35l-2.42,8.15s-3.04-.51-7.89-1.34c-1.45-.26-2.28-.45-2.28-.45-3.87-.7-8.5-1.65-13.55-2.67h-.07c-8.64-1.91-18.32-4.2-26.48-6.75-.73-.24-1.45-.47-2.15-.71-4.82-1.64-8.99-3.36-11.95-5.09-.35-.19-.62-.38-.97-.63-8.09-5.41,17.42-18.46,21.64-15.66,1.12,.75,2.32,1.52,3.57,2.31,7,4.37,15.9,9.25,23.81,13.35,3.87,2.04,7.54,3.89,10.58,5.41,4.91,2.48,8.16,4.08,8.16,4.08Z"></path><path fill="#8c9df4" d="M537.77,721.51s.51,15.4-15.15,22.88c-18.09-6.01-27.77-30.86-35.24-47.92-1.04-2.35-2.01-4.71-2.97-7-3.46-8.53-6.23-16.94-7.89-24.2-1.04-4.33-1.73-8.28-1.86-11.52-.07-1.15,20.95-14.65,23.51-9.48,3.94,8.21,8.09,18.85,11.96,29.41,2.15,5.8,4.22,11.59,6.29,16.94,1.18,3.25,2.35,6.3,3.46,9.1,2.15,5.35,4.08,9.68,5.81,12.42,1.11,1.79,4.29,4.27,8.51,7.07,1.12,.75,2.32,1.52,3.57,2.31Z"></path><path fill="#ffb27d" d="M576.36,742.83s7.85,1.88,9.77,.91c1.92-.97,10.46-2.3,12.38,.2,2.59,3.36,5.5,9.84,3.89,11.4-1.61,1.56-5.66-2.79-11.28-1.21-2.84,.8-8.5,3.12-11.94,.89-3.45-2.24-7.5-5.52-7.5-5.52l4.67-6.67Z"></path></g><path fill="#d5dffc" d="M458.68,210.38l19.15,.46c1.59,.05,3.02,.96,3.7,2.36,.86,1.78,1.8,3.54,2.82,5.28,1.9,3.23,4,6.26,6.32,9.05,1.08,1.31,1.25,3.1,.39,4.55l-9.78,16.89c-1.06,1.79-.5,4.09,1.29,5.26l15.14,9.94c1.72,1.12,4.01,.81,5.36-.7l11.95-13.57c1.13-1.34,3.06-1.78,4.77-1.09,7.19,2.9,14.85,4.68,22.69,5.28,1.89,.15,3.47,1.56,3.78,3.36l1.87,10.69c.37,2.03,2.25,3.5,4.4,3.39l18.14-1.1c.37-.02,.73-.07,1.07-.19,1.63-.5,2.8-1.98,2.83-3.69l.37-13.83,.08-3.37c3.16-1.21,6.3-2.65,9.34-4.32,4.09-2.25,7.89-4.83,11.32-7.65,1.32-1.07,3.17-1.28,4.66-.45l14.06,7.63c1.93,1.03,4.35,.49,5.57-1.28l7.87-11.19,2.25-3.21c1.23-1.75,.91-4.13-.76-5.49l-11.72-9.66c-1.37-1.11-1.87-2.93-1.21-4.5,1.9-4.74,3.28-9.66,4.09-14.66,.11-.43,.16-.83,.22-1.26,.01-.14,.05-.28,.09-.42,.39-1.59,1.74-2.77,3.41-3.04l17.95-2.97c.21-.02,.41-.08,.59-.14,1.78-.56,3-2.26,2.9-4.1l-1.1-17.48c-.14-2.11-1.9-3.76-4.11-3.83l-19.97-.47c-1.7-.02-3.18-1.07-3.77-2.6-1.33-3.36-2.95-6.68-4.86-9.93-1.01-1.72-2.09-3.38-3.23-4.99-.92-1.31-1-3.01-.2-4.38l9.39-16.23c1.04-1.78,.49-4.06-1.27-5.23l-14.99-9.82c-1.81-1.19-4.25-.89-5.7,.74l-9.46,10.74c-1.27,1.44-3.36,1.85-5.1,1.02-6.8-3.35-14.11-5.63-21.64-6.81-1.78-.25-3.21-1.61-3.51-3.35l-2.76-15.64c-.37-2.1-2.32-3.58-4.52-3.47l-18.02,1.06c-2.16,.12-3.87,1.85-3.9,3.91l-.03,.81-.43,16.07c-.04,1.72-1.17,3.2-2.85,3.78h-.02c-4.02,1.39-7.98,3.12-11.83,5.24-2.05,1.13-4.01,2.34-5.92,3.63-1.32,.91-3.04,1-4.45,.24l-14.28-7.74c-1.95-1.07-4.43-.49-5.67,1.28l-10.12,14.42c-.29,.41-.48,.87-.6,1.31-.37,1.46,.12,3.07,1.35,4.09l9.39,7.69c1.14,.95,1.67,2.43,1.41,3.83-.07,.37-.19,.73-.37,1.09-4.4,8.46-6.98,17.67-7.64,27.13-.09,1.61-1.21,2.97-2.74,3.51-.22,.07-.45,.13-.69,.17l-14.53,2.39c-2.11,.34-3.61,2.17-3.49,4.24l.02,.41,1.06,17.04c.16,2.15,1.95,3.81,4.17,3.86Zm128.02-35.68c.71,2.75,1.18,5.68,1.36,8.76,.34,5.88-2.15,14.76-5.58,19.65-.36,.53-.74,1.03-1.11,1.54-23.17,30.65-70.6,17.62-73.24-20.8-.34-5.02,1.32-12.05,3.91-17.26,.62-1.2,1.26-2.32,1.93-3.25,3.14-4.43,6.76-8,10.71-10.77,22.5-15.79,54.82-5.33,62.02,22.14Z"></path><path fill="#d5dffc" d="M1053.76,383.62l26.63-2.9c2.22-.22,4.38,.78,5.59,2.59,1.54,2.31,3.19,4.58,4.95,6.8,3.27,4.13,6.78,7.94,10.54,11.38,1.76,1.62,2.34,4.07,1.45,6.23l-10.21,25.21c-1.12,2.68,.11,5.76,2.84,7.05l22.94,10.98c2.6,1.24,5.72,.39,7.29-1.95l13.87-21.01c1.3-2.07,3.9-3.03,6.39-2.39,10.54,2.69,21.51,3.75,32.48,3.13,2.65-.15,5.11,1.52,5.9,3.96l4.7,14.47c.92,2.74,3.82,4.44,6.77,3.88l24.91-4.87c.51-.1,.99-.24,1.44-.46,2.16-.99,3.49-3.26,3.19-5.64l-2.22-19.23-.55-4.69c4.14-2.25,8.21-4.84,12.08-7.71,5.22-3.87,9.97-8.14,14.18-12.69,1.61-1.73,4.14-2.36,6.38-1.49l21,7.97c2.88,1.07,6.13-.13,7.47-2.8l8.69-16.95,2.48-4.86c1.36-2.65,.45-5.89-2.13-7.47l-18.16-11.22c-2.12-1.28-3.17-3.71-2.56-6.01,1.69-6.92,2.64-14,2.77-21.07,.06-.62,.06-1.18,.06-1.79-.01-.2,.01-.4,.04-.6,.22-2.27,1.86-4.16,4.12-4.84l24.28-7.43c.28-.07,.55-.19,.79-.3,2.36-1.11,3.71-3.68,3.2-6.22l-4.99-24.02c-.61-2.9-3.38-4.86-6.45-4.55l-27.77,3.04c-2.35,.28-4.61-.89-5.73-2.91-2.51-4.41-5.4-8.71-8.69-12.86-1.75-2.2-3.56-4.3-5.46-6.32-1.53-1.65-1.98-3.98-1.14-6.03l9.81-24.23c1.09-2.66-.12-5.72-2.8-7.01l-22.71-10.83c-2.74-1.32-6.07-.45-7.75,2.08l-10.98,16.62c-1.47,2.23-4.29,3.18-6.87,2.35-10.09-3.38-20.67-5.19-31.33-5.44-2.52-.02-4.76-1.63-5.52-3.99l-6.92-21.16c-.93-2.84-3.93-4.53-6.95-3.97l-24.76,4.79c-2.97,.57-4.99,3.27-4.63,6.14l.12,1.12,2.59,22.34c.28,2.39-.99,4.65-3.2,5.76l-.02,.02c-5.3,2.65-10.44,5.79-15.36,9.43-2.62,1.94-5.09,3.99-7.49,6.12-1.64,1.5-4.02,1.95-6.12,1.16l-21.31-8.09c-2.91-1.12-6.23,.13-7.6,2.82l-11.17,21.86c-.31,.63-.49,1.29-.58,1.92-.22,2.09,.78,4.23,2.68,5.42l14.53,8.92c1.77,1.11,2.79,3.06,2.71,5.04-.03,.52-.12,1.05-.3,1.57-4.42,12.54-6.18,25.78-5.23,39,.2,2.24-1.09,4.33-3.11,5.37-.29,.14-.6,.27-.92,.37l-19.67,6c-2.85,.87-4.57,3.67-4,6.53l.11,.56,4.84,23.41c.64,2.94,3.46,4.91,6.55,4.58Zm170.35-73.09c1.52,3.68,2.75,7.65,3.61,11.89,1.63,8.09-.07,20.85-3.85,28.25-.4,.8-.82,1.57-1.24,2.34-26.05,46.75-94.35,37.45-105.6-15.3-1.46-6.9-.55-16.94,2-24.64,.62-1.78,1.28-3.44,2.04-4.86,3.48-6.71,7.79-12.33,12.71-16.91,28.05-26.04,74.91-17.51,90.32,19.22Z"></path></g></g></g></svg>