<svg viewBox="0 0 1620 1028" xmlns="http://www.w3.org/2000/svg"><g id="a"></g><g id="b"><g id="c"><g><path opacity=".5" fill="#d8e9ff" d="M1571.75,1020.03h0c-.12,.27-.25,.53-.37,.8-.89,1.89-1.81,3.81-2.76,5.74l-1441.96-.52s-1.4-1.85-3.92-5.41c-.14-.2-.29-.41-.44-.62-6.44-9.16-19.4-28.43-34.58-55.61,0,0,0-.01-.01-.03C47.45,892.25-8.34,764.51,1.05,622.72c2.65-40.02,10.49-81.16,25.34-122.49,45.04-125.34,179.42-209.83,300.48-211.53,46.86-.66,91.72,11.09,128.63,37.67,6.55,4.71,14.78,8.35,24.35,10.83,8.07,2.1,17.09,3.37,26.89,3.77,78.62,3.28,206.49-49.2,282.33-181.23,40.27-70.11,102.1-116.01,173.16-139.92,3.31-1.11,6.65-2.18,9.99-3.19,16.16-4.91,32.76-8.72,49.66-11.45,3.04-.49,6.1-.95,9.16-1.36,74.99-10.31,155.3,.35,228.97,29.82,9.7,3.88,19.29,8.09,28.74,12.62,138.63,66.49,246.48,202.28,237,391.86-.37,7.5-.93,15.08-1.68,22.75-1.42,14.6-3.53,29.5-6.36,44.7-1.67,8.96-3.59,18.02-5.77,27.18-57.14,240.34,171.28,251.19,59.82,487.27Z"></path><path fill="#dceafb" d="M1571.75,1020.03h0l-1122.38,.15,9.68-397.31v-107.95h41.98v-84.31h83.75v71.56h25.58v-132.35h5.56v-9.25h1v9.25h20.2v-9.25h1v9.25h28.59v-9.25h1v9.25h18v-9.25h.99v9.25h7.39v123.54h28.27v-19.98l33.34,.18v-32.38h6.7v-6.4h.89v6.4h30.89v-6.4h.89v6.42h6.21v64.38h39.69v23.7h22.07v-13.76h20.46v-54.63h10.21v-25.49h1.54v25.49h24.45v-47.77h2.4v47.77h16.18v-.66h-.03v-6.06h.03v-5.74h-.03v-9.55h.03v-6.09h-.03v-9.55h.03v-6.09h-.03v-9.55h.03v-6.59h-.03v-9.54h.03v-8.39h-.03v-9.54h.03v-6.33h4.82v-7.14h.77v7.14h35.71v-7.14h.77v7.14h6.52v49.94l4.58,.03v-.03h-.04v-9.55h.04v-6.59h-.04v-9.54h.04v-6.57h-.04v-9.55h.04v-.03h43.31v.03h7.44c.38,.25,.77,.51,1.16,.76v63.68h7.97v-9.18h91.41v71.56h27.91v-132.35h6.07v-9.25h1.1v9.25h22.04v-9.25h1.09v9.25h31.22v-9.25h1.09v9.25h19.65v-9.25h1.08v9.25h8.07v123.54h30.85v-19.98l36.38,.18v-32.38h7.33v-6.41h.97v6.41h33.71v-6.41h.97v6.42h6.78v64.39h43.31v23.69h24.09v-13.76h22.33v-54.63h11.14v-25.48h1.68v25.48h26.69v-47.76h2.62v47.76h13.12c-1.42,14.6-3.53,29.5-6.36,44.7-1.67,8.96-3.59,18.02-5.77,27.18-57.14,240.34,171.28,251.19,59.82,487.27Z"></path><path fill="#a8ccff" d="M1288.74,46.28V1020.03h-28.74V33.66c9.71,3.88,19.29,8.09,28.74,12.62Z"></path><path fill="#c9e0ff" d="M479.85,337.2V1020.65H122.75c-.14-.2-.29-.41-.44-.62-6.44-9.16-19.4-28.43-34.58-55.61,0,0,0-.01-.01-.03C47.45,892.25-8.34,764.51,1.05,622.72c2.65-40.02,10.49-81.16,25.34-122.49,45.04-125.34,179.42-209.83,300.48-211.53,46.42,.61,90.66,12.47,127.4,37.67,6.88,4.71,15.53,8.35,25.58,10.83Z"></path><g><path fill="#97c0f8" d="M1031.04,3.83V123.75c0,9.35-1.93,16.98-4.28,16.98h-.61c-2.35,0-4.27-7.63-4.27-16.98V5.19c3.04-.49,6.1-.95,9.16-1.36Z"></path><path fill="#ff9223" d="M1024.07,111.88c-33.37,0-60.42,33.88-60.42,75.67h120.83c0-41.79-27.05-75.67-60.42-75.67Z"></path><path fill="#ffc180" d="M1028.88,112.8c-1.74-.45-3.51-.68-5.31-.68-21.74,0-39.36,33.77-39.36,75.43h10.61c0-38.21,14.83-69.78,34.06-74.74Z"></path></g><g><g><path fill="#6ca3ea" d="M1421.95,908.42s-16.08-22.22-.99-36.33c0,0,11.02-7.9,20.01-7.26,0,0-12.73,25.29-8.61,27.8,4.12,2.52,12.47-29.39,12.47-29.39,0,0,25.08-2.88,33.14,1.71,0,0-21.44,20.78-16.92,22.02,4.52,1.24,27.67-19.16,27.67-19.16,0,0,23.34,4.7,22.1,21.57-1.24,16.86-9.29,22.07-12.82,21.62-3.54-.45-24.21-9.8-24.66-6.37-.45,3.43,12,14.64,20.71,15.17,0,0-16.46,21.49-27.39,15.29-10.94-6.2-11.87-16.04-18.69-19.72-6.82-3.69-12.64-3.68-9.82,.08,2.81,3.76,15.15,7.42,19.05,15.59,3.9,8.17,7.4,13.68-3.92,11.66-11.31-2.02-29.71-11.82-30.51-23.05l-.81-11.23Z"></path><g><path fill="#6ca3ea" d="M1499.35,889.84s-63.39-2.89-77.39,18.58c0,0-3.1,10.98-12.62,20.98l-1.49,4.79s10.98-13.72,14.92-14.55c0,0-6.15-26.6,76.59-29.81Z"></path><path fill="#6ca3ea" d="M1409.33,929.41s-13.61,11.92-14.55,33.22l2.47,.26s4.35-22.02,12.2-30.63c7.86-8.61-.12-2.85-.12-2.85Z"></path></g></g><g><path fill="#6ca3ea" d="M1365.74,880.48s25.58-16.96,13.64-39.99c0,0-9.55-14.14-19.78-17.77,0,0,5.46,34.33,0,35.14-5.46,.81-3.75-38.78-3.75-38.78,0,0-26.94-15.35-37.51-14.14,0,0,16.71,33.53,11.25,32.72-5.46-.81-24.21-34.74-24.21-34.74,0,0-27.62-6.06-32.06,13.33-4.43,19.39,2.73,29.08,6.82,30.29,4.09,1.21,30.35,.81,29.67,4.85-.68,4.04-18.42,10.5-28.3,6.87,0,0,10.91,31.91,25.24,30.29,14.32-1.62,18.76-12.12,27.62-12.93,8.87-.81,15.35,2.02,10.91,4.85-4.43,2.83-19.44,.93-26.6,8.14-7.16,7.21-12.96,11.65,.34,14.89,13.3,3.23,37.17,1.21,41.95-10.91l4.77-12.12Z"></path><g><path fill="#6ca3ea" d="M1285.94,822.32s71.61,27.47,79.8,58.16c0,0-.34,13.73,6.82,29.49v6.06s-7.5-20.6-11.59-23.43c0,0,16.03-26.66-75.02-70.28Z"></path><path fill="#6ca3ea" d="M1372.56,909.97s11.04,19.86,4.75,44.04l-2.84-.9s2.76-26.63-3.02-40.03c-5.78-13.4,1.11-3.11,1.11-3.11Z"></path></g></g><g><path fill="#97c0f8" d="M1406.43,857.09s-33.71-22.36-17.98-52.71c0,0,12.59-18.64,26.07-23.43,0,0-7.19,45.26,0,46.32,7.19,1.06,4.94-51.11,4.94-51.11,0,0,35.51-20.23,49.45-18.64,0,0-22.03,44.19-14.83,43.13,7.19-1.07,31.92-45.79,31.92-45.79,0,0,36.41-7.99,42.25,17.57,5.84,25.56-3.6,38.34-8.99,39.93-5.39,1.6-40.01,1.07-39.11,6.39,.9,5.32,24.27,13.84,37.31,9.05,0,0-14.38,42.06-33.26,39.93-18.88-2.13-24.72-15.97-36.41-17.04-11.69-1.06-20.23,2.66-14.38,6.39,5.84,3.73,25.62,1.22,35.06,10.73,9.44,9.51,17.08,15.36-.45,19.62-17.53,4.26-49,1.6-55.29-14.38l-6.29-15.97Z"></path><g><path fill="#97c0f8" d="M1511.62,780.41s-94.4,36.21-105.19,76.67c0,0,.45,18.1-8.99,38.87v7.99s9.89-27.15,15.28-30.88c0,0-21.13-35.14,98.9-92.64Z"></path><path fill="#97c0f8" d="M1397.44,895.95s-14.56,26.18-6.26,58.06l3.75-1.19s-3.64-35.11,3.98-52.76c7.62-17.66-1.47-4.1-1.47-4.1Z"></path></g></g><path fill="#97c0f8" d="M1405.29,1023.13c36.47,0,66.04-35.02,66.04-78.22h-132.08c0,43.2,29.57,78.22,66.04,78.22Z"></path><path fill="#a8ccff" d="M1421.54,1022.54c-2.69,.4-5.42,.6-8.2,.6-36.47,0-66.04-35.02-66.04-78.22h16.41c0,39.91,25.23,72.84,57.84,77.62Z"></path><rect fill="#97c0f8" height="2.4" width="135.76" y="944.91" x="1337.08"></rect></g><g><path fill="#6ca3ea" d="M1097.84,1019.29l-64.9-319.03,4.53-12.56,64.29,331.55c.17,.85-.38,1.66-1.12,1.66h-1.07c-.83,0-1.55-.67-1.74-1.62Z"></path><g><path fill="#6ca3ea" d="M804.97,1020.91h0c-1.33,0-2.35-1.42-2.13-2.98l19.11-137.22h8.19l-22.79,137.88c-.22,1.35-1.22,2.32-2.38,2.32Z"></path><path fill="#6ca3ea" d="M988.32,1020.91h0c-1.33,0-2.35-1.42-2.13-2.98l19.11-137.22h8.19l-22.79,137.88c-.22,1.35-1.22,2.32-2.38,2.32Z"></path><polygon fill="#f3faff" points="1032.78 881.01 804.51 881.01 851.8 529.83 1080.07 529.83 1032.78 881.01"></polygon><rect fill="#6ca3ea" height="10.33" width="262.16" y="878.33" x="787.7"></rect><g><path fill="#b8d0fc" d="M942.2,603.31c-.17,2.78-.52,5.51-1.02,8.17-4.76,25.1-23.63,44.33-44.95,44.37-23.59,.05-41.25-23.4-39.45-52.37,1.8-28.97,22.38-52.5,45.97-52.54,4.94-.01,9.63,1.01,13.93,2.91,1.94,.85,3.8,1.87,5.56,3.06,3.82,2.57,7.22,5.87,10.08,9.78,1.6,2.18,3.03,4.54,4.28,7.06,.73,1.46,1.39,2.97,1.98,4.54,1.66,4.34,2.8,9.06,3.36,14.04,.28,2.49,.4,5.06,.38,7.68-.01,1.09-.05,2.19-.12,3.3Z"></path><path fill="#fff" d="M938.59,578.29l-39.09,25.11s16.13-33.65,22.75-46.49c3.82,2.57,7.22,5.87,10.08,9.78,1.6,2.18,3.03,4.54,4.28,7.06,.73,1.46,1.39,2.97,1.98,4.54Z"></path><path fill="#ff912b" d="M942.65,571.94l-35.71,22.93s14.73-30.73,20.78-42.47c3.49,2.34,6.59,5.37,9.21,8.94,1.46,1.99,2.77,4.15,3.91,6.45,.66,1.33,1.27,2.72,1.81,4.14Z"></path></g><g><path fill="#b8d0fc" d="M1014.6,854.31l-187.88-.02,19.02-128.4,187.88,.02-19.02,128.4Zm-186.37-1.31l185.23,.02,18.64-125.82-185.23-.02-18.64,125.82Z"></path><g><path fill="#ff912b" d="M1003.4,836.7h-166.63s29.56-18.79,37.67-17.8c8.11,.98,19.76,8.58,27.25,8.88,7.49,.3,15.61-26.35,23.95-25.1,8.34,1.26,11.48,24.83,15.8,22.52,4.32-2.3,17.29-3.3,24.76,0,7.47,3.3,18.35-10.49,24.92-10.06,6.57,.43,12.28,21.55,12.28,21.55Z"></path><g><polygon fill="#ff912b" points="876.84 798.96 845.01 798.96 845.31 796.96 877.13 796.97 876.84 798.96"></polygon><polygon fill="#ff912b" points="876.2 803.23 844.38 803.23 844.67 801.23 876.5 801.24 876.2 803.23"></polygon></g></g><g><path fill="#b8d0fc" d="M846.3,772.33h166.63s-23.99-18.77-32.4-17.78c-8.4,.98-22.3,8.58-29.89,8.88-7.58,.29-7.8-26.35-16.51-25.1-8.71,1.26-18.84,24.82-22.47,22.52-3.64-2.3-16.31-3.3-24.76,0-8.45,3.3-15.24-10.49-21.94-10.06-6.7,.43-18.67,21.55-18.67,21.55Z"></path><g><polygon fill="#b8d0fc" points="885.83 738.27 854 738.27 854.3 736.27 886.12 736.27 885.83 738.27"></polygon><polygon fill="#b8d0fc" points="885.19 742.54 853.37 742.54 853.66 740.54 885.49 740.54 885.19 742.54"></polygon></g></g></g><g><polygon fill="#b8d0fc" points="857.11 707.99 849.8 707.99 856.15 667.42 863.46 667.42 857.11 707.99"></polygon><polygon fill="#b8d0fc" points="867.06 707.99 859.75 707.99 864.67 676.56 871.98 676.56 867.06 707.99"></polygon><polygon fill="#b8d0fc" points="877.02 707.99 869.71 707.99 874.84 675.22 882.15 675.22 877.02 707.99"></polygon><polygon fill="#b8d0fc" points="886.97 707.99 879.67 707.99 883.57 683.06 890.88 683.06 886.97 707.99"></polygon><polygon fill="#b8d0fc" points="896.93 707.99 889.62 707.99 893.81 681.24 901.12 681.24 896.93 707.99"></polygon><polygon fill="#b8d0fc" points="906.89 707.99 899.58 707.99 902.82 687.25 910.13 687.25 906.89 707.99"></polygon></g><g><polygon fill="#ff912b" points="954.87 707.99 947.57 707.99 953.92 667.42 961.22 667.42 954.87 707.99"></polygon><polygon fill="#ff912b" points="964.83 707.99 957.52 707.99 962.44 676.56 969.75 676.56 964.83 707.99"></polygon><polygon fill="#ff912b" points="974.79 707.99 967.48 707.99 972.61 675.22 979.92 675.22 974.79 707.99"></polygon><polygon fill="#ff912b" points="984.74 707.99 977.43 707.99 981.34 683.06 988.64 683.06 984.74 707.99"></polygon><polygon fill="#ff912b" points="994.7 707.99 987.39 707.99 991.58 681.24 998.89 681.24 994.7 707.99"></polygon><polygon fill="#ff912b" points="1004.65 707.99 997.35 707.99 1000.59 687.25 1007.9 687.25 1004.65 707.99"></polygon></g><g><g><polygon fill="#b8d0fc" points="990.06 575.57 966.27 575.57 966.88 571.71 990.67 571.71 990.06 575.57"></polygon><polygon fill="#b8d0fc" points="1019.25 575.57 992.98 575.57 993.59 571.71 1019.86 571.71 1019.25 575.57"></polygon><polygon fill="#b8d0fc" points="1037.97 575.57 1021.22 575.57 1021.84 571.71 1038.58 571.71 1037.97 575.57"></polygon><polygon fill="#b8d0fc" points="1053.61 575.57 1040.68 575.57 1041.3 571.71 1054.22 571.71 1053.61 575.57"></polygon></g><g><polygon fill="#b8d0fc" points="987.45 592.04 963.66 592.04 964.27 588.18 988.06 588.18 987.45 592.04"></polygon><polygon fill="#b8d0fc" points="1016.64 592.04 990.37 592.04 990.98 588.18 1017.25 588.18 1016.64 592.04"></polygon><polygon fill="#b8d0fc" points="1035.36 592.04 1018.61 592.04 1019.22 588.18 1035.97 588.18 1035.36 592.04"></polygon><polygon fill="#b8d0fc" points="1051 592.04 1038.07 592.04 1038.68 588.18 1051.61 588.18 1051 592.04"></polygon></g><g><polygon fill="#b8d0fc" points="1004.2 566.56 967.7 566.56 968.31 562.7 1004.81 562.7 1004.2 566.56"></polygon><polygon fill="#b8d0fc" points="1028.72 566.56 1007.68 566.56 1008.29 562.7 1029.33 562.7 1028.72 566.56"></polygon><polygon fill="#b8d0fc" points="1055.05 566.56 1031.69 566.56 1032.3 562.7 1055.66 562.7 1055.05 566.56"></polygon></g><g><polygon fill="#b8d0fc" points="1001.42 584.07 964.92 584.07 965.53 580.21 1002.04 580.21 1001.42 584.07"></polygon><polygon fill="#b8d0fc" points="1025.94 584.07 1004.9 584.07 1005.51 580.21 1026.55 580.21 1025.94 584.07"></polygon><polygon fill="#b8d0fc" points="1052.28 584.07 1028.91 584.07 1029.52 580.21 1052.89 580.21 1052.28 584.07"></polygon></g><g><polygon fill="#b8d0fc" points="984.84 608.51 961.05 608.51 961.66 604.65 985.45 604.65 984.84 608.51"></polygon><polygon fill="#b8d0fc" points="1014.03 608.51 987.76 608.51 988.37 604.65 1014.64 604.65 1014.03 608.51"></polygon><polygon fill="#b8d0fc" points="1032.75 608.51 1016 608.51 1016.61 604.65 1033.36 604.65 1032.75 608.51"></polygon><polygon fill="#b8d0fc" points="1048.39 608.51 1035.46 608.51 1036.07 604.65 1049 604.65 1048.39 608.51"></polygon></g><g><polygon fill="#b8d0fc" points="998.81 600.54 962.31 600.54 962.92 596.68 999.43 596.68 998.81 600.54"></polygon><polygon fill="#b8d0fc" points="1023.33 600.54 1002.29 600.54 1002.9 596.68 1023.94 596.68 1023.33 600.54"></polygon><polygon fill="#b8d0fc" points="1049.66 600.54 1026.3 600.54 1026.91 596.68 1050.28 596.68 1049.66 600.54"></polygon></g><g><polygon fill="#b8d0fc" points="982.39 623.95 958.6 623.95 959.21 620.09 983 620.09 982.39 623.95"></polygon><polygon fill="#b8d0fc" points="1011.58 623.95 985.31 623.95 985.92 620.09 1012.19 620.09 1011.58 623.95"></polygon><polygon fill="#b8d0fc" points="1030.3 623.95 1013.55 623.95 1014.17 620.09 1030.91 620.09 1030.3 623.95"></polygon><polygon fill="#b8d0fc" points="1045.94 623.95 1033.01 623.95 1033.63 620.09 1046.55 620.09 1045.94 623.95"></polygon></g><g><polygon fill="#b8d0fc" points="996.37 615.98 959.86 615.98 960.48 612.12 996.98 612.12 996.37 615.98"></polygon><polygon fill="#b8d0fc" points="1020.88 615.98 999.84 615.98 1000.45 612.12 1021.49 612.12 1020.88 615.98"></polygon><polygon fill="#b8d0fc" points="1047.22 615.98 1023.85 615.98 1024.46 612.12 1047.83 612.12 1047.22 615.98"></polygon></g></g><g><polygon fill="#b8d0fc" points="928.25 673.45 916.61 673.45 916.9 671.56 928.55 671.56 928.25 673.45"></polygon><polygon fill="#b8d0fc" points="942.54 673.45 929.68 673.45 929.98 671.56 942.83 671.56 942.54 673.45"></polygon><polygon fill="#b8d0fc" points="926.97 681.52 915.33 681.52 915.63 679.63 927.27 679.63 926.97 681.52"></polygon><polygon fill="#b8d0fc" points="941.26 681.52 928.4 681.52 928.7 679.63 941.56 679.63 941.26 681.52"></polygon><polygon fill="#b8d0fc" points="935.17 669.04 917.3 669.04 917.6 667.16 935.47 667.16 935.17 669.04"></polygon><polygon fill="#b8d0fc" points="947.17 669.04 936.87 669.04 937.17 667.16 947.47 667.16 947.17 669.04"></polygon><polygon fill="#b8d0fc" points="933.81 677.62 915.94 677.62 916.24 675.73 934.11 675.73 933.81 677.62"></polygon><polygon fill="#b8d0fc" points="945.81 677.62 935.51 677.62 935.81 675.73 946.11 675.73 945.81 677.62"></polygon></g><g><polygon fill="#b8d0fc" points="1021.53 673.45 1009.89 673.45 1010.19 671.56 1021.83 671.56 1021.53 673.45"></polygon><polygon fill="#b8d0fc" points="1035.82 673.45 1022.96 673.45 1023.26 671.56 1036.12 671.56 1035.82 673.45"></polygon><polygon fill="#b8d0fc" points="1020.25 681.52 1008.61 681.52 1008.91 679.63 1020.55 679.63 1020.25 681.52"></polygon><polygon fill="#b8d0fc" points="1034.54 681.52 1021.68 681.52 1021.98 679.63 1034.84 679.63 1034.54 681.52"></polygon><polygon fill="#b8d0fc" points="1028.45 669.04 1010.59 669.04 1010.89 667.16 1028.75 667.16 1028.45 669.04"></polygon><polygon fill="#b8d0fc" points="1040.45 669.04 1030.15 669.04 1030.45 667.16 1040.75 667.16 1040.45 669.04"></polygon><polygon fill="#b8d0fc" points="1027.09 677.62 1009.23 677.62 1009.53 675.73 1027.39 675.73 1027.09 677.62"></polygon><polygon fill="#b8d0fc" points="1039.09 677.62 1028.8 677.62 1029.09 675.73 1039.39 675.73 1039.09 677.62"></polygon></g></g></g><g><g><path fill="#ffae73" d="M1083.49,1015.71c-.41,6.6-8.27,6.67-17.19,5.45-8.92-1.23-6.55,1.45-19.04,1.65-12.49,.21-16.8-4.68-17.4-6.8-.54-1.88,5.48-3.46,11.92-5.31,.81-.23,1.62-.47,2.43-.72,7.26-2.19,12.06-8.62,18.27-14.24,5.88-5.32,13.47-24.58,13.47-24.58l17.07-.91s-7.19,17.26-9.89,24.71c-1.59,4.38-.91,9.76-.22,13.89,.37,2.25,.74,4.54,.59,6.87Z"></path><path fill="#1e3865" d="M1066.29,1021.15c-8.92-1.23-6.55,1.45-19.04,1.65-12.49,.21-16.8-4.68-17.4-6.8-.54-1.88,5.48-3.46,11.92-5.31l.08,.14s8.04,5.11,18.33,3.89c8.39-1,16.94-5.14,22.73-5.88,.37,2.25,.74,4.54,.59,6.87-.41,6.6-8.27,6.67-17.19,5.45Z"></path></g><g><path fill="#ffae73" d="M1201.36,1017.08c-.4,6.6-8.27,6.68-17.19,5.47-8.92-1.22-6.55,1.46-19.04,1.68-12.49,.22-16.8-4.66-17.41-6.78-.54-1.88,5.47-3.46,11.91-5.33,.81-.23,1.62-.47,2.43-.72,7.26-2.19,12.06-8.63,18.26-14.26,5.88-5.33,0-36.88,0-36.88l18.77-2.16s-.9,26.56-.89,38.64c0,4.77,1.86,9.35,2.55,13.48,.37,2.24,.74,4.54,.6,6.87Z"></path><path fill="#1e3865" d="M1184.17,1022.54c-8.92-1.22-6.55,1.46-19.04,1.68-12.49,.22-16.8-4.66-17.41-6.78-.54-1.88,5.47-3.46,11.91-5.33l.08,.14s8.05,5.1,18.34,3.87c8.38-1.01,16.94-5.16,22.72-5.91,.37,2.24,.74,4.54,.6,6.87-.4,6.6-8.27,6.68-17.19,5.47Z"></path></g><path fill="#b53c37" d="M1146.57,471.8c-3.23-15.74,1.45-23.07,5.68-26.98,2-5.79,4.29-9.97,6.63-11.55,4.27-2.87,9.38-3.19,12.95-2.94-.92-1.13-2.73-1.54-2.73-1.54,2.22-.39,7.17,2.21,7.17,2.21,30.84-14.08,35.69,39.72,35.04,52.21-.64,12.5-.56,27.22,15.49,37.06,30.62,18.79-10.18,89.59-10.18,89.59,.78-10.1-38.56-63.4-59.09-79.36-5-8.71-6.77-24.1-6.91-25.32,.86,12.2,2.63,19.05,4.2,22.9-9.36-10.2-10.74-34.69-8.27-56.32Z"></path><path fill="#ffae73" d="M1158.76,531.32c-.1,.05,9.91,6.21,17.44,3.77,7.08-2.29,11.71-13.17,11.62-13.19-3-.71-3.87-5.59-3.8-26.57l-1.36,.32-22.81,5.35s.52,8.5,.53,16.51c.02,6.72-.33,13.1-1.63,13.82Z"></path><path fill="#f9924f" d="M1159.85,500.99s.52,8.5,.53,16.51c12.76-.43,19.51-14.22,22.27-21.86l-22.81,5.35Z"></path><path fill="#214d9a" d="M1067.06,981.86c-1.12,4.15,1.4,8.43,5.07,8.63l8.91,.49,9.43,.34c2.36,.09,4.61-1.13,6.1-3.3,7.52-10.93,30.69-47.37,44.73-100.32,.4-1.49,.81-2.99,1.25-4.51,9.28-32.05,28.51-72.27,38.65-108.68,1.61-5.8,3.06-11.26,4.36-16.42,.42-1.66,.82-3.28,1.21-4.88,7.47-30.74,9.63-50.93,11.63-72.49l-73.19,.69s-15.41,141.86-58.15,300.44Z"></path><path fill="#fff" d="M1135.46,631.6c.18,41.26-5.11,58.96-5.11,58.96,0,0,31.34,18.86,68.59,4.98,.44-.16,26.65-8.95,26.65-8.95-.62-1.67-5.8-29.27-6.41-30.81-7.86-20-10.01-28.4-10.94-34.55-1.73-11.48-1.77-23.36-.91-34.56,2.27-29.66,9.03-54.28,9.03-54.28-10.15-2.73-19.65-7.54-30.22-12.23-2.43,3.58-9.86,7.33-16.3,7.16-7.42-.19-9.83-3.96-9.44-8.06-7.91,5.21-14.22,10.13-14.22,10.13-6.72,13.83-20.35,27.25-21.34,48.46-.24,5.22,10.6,52.61,10.61,53.76Z"></path><path fill="#4b9ba9" d="M1198.41,636.2c3.2,5.36,9.33,37.96,24.6,42.06-7.86-23.23-13.83-33.42-14.77-40.57-1.73-13.34-1.77-27.13-.91-40.15-5.11-10.61-8.92-17.88-8.92-17.88-.4-1.72-8.12-29.98-10.59-4.71-2.47,25.27,7.02,55.24,10.59,61.24Z"></path><path fill="#ffae73" d="M1155.59,508.57s30.19,.59,30.21-21.69c.02-22.28,3.93-37.2-15.35-38.52-19.28-1.32-23.03,7.18-24.56,14.61-1.53,7.43,1.84,44.87,9.7,45.6Z"></path><path fill="#b53c37" d="M1156.71,447.82s8.27,26.14,20.95,30c12.69,3.86,18.19-.16,18.19-.16,0,0-9.73-9.16-11.75-25.14,0,0-21.16-17.14-27.39-4.7Z"></path><path fill="#b53c37" d="M1158.76,449.94s-6.17,5.84-7.68,11.51c-1.51,5.67-2.18,17.35-5.06,16.95,0,0-6.23-17.76,.77-27.81,7.42-10.66,11.96-.65,11.96-.65Z"></path><polygon fill="#ffae73" points="1108.08 660.24 1093.82 711.74 1101.95 715.6 1125.53 670.1 1108.08 660.24"></polygon><path fill="#ff912b" d="M1146.53,526.35s-16.81,7.9-21.68,20.23c-4.87,12.32-12.24,94.98-15.17,103.46-2.93,8.49-5.14,15.21-5.14,15.21,0,0,8.48,8.46,17,9.08,8.53,.62,24.99-147.98,24.99-147.98Z"></path><path fill="#ff912b" d="M1160.4,519.25s-17.47,51.12-17.98,61.46c-.51,10.35-2.05,169.17-2.05,169.17,0,0,1.03,7.3-10.79,4.26-11.82-3.04-14.9-6.08-14.9-6.08,0,0,11.3-97.97,8.22-132.05-3.08-34.08,23.63-89.66,23.63-89.66l13.87-7.1Z"></path><path fill="#153d74" d="M1081.04,990.99l10.24,.37c1.83,.07,3.58-.87,4.75-2.54,6.88-9.87,30.87-46.81,45.28-101.11,.4-1.49,.81-2.99,1.25-4.51,9.28-32.05,28.51-72.27,38.65-108.68,1.61-5.8,3.06-11.26,4.36-16.42,.42-1.66,.82-3.28,1.21-4.88l-10.78-9.69s-32.36,62.07-42.38,120.48c-8.7,50.74-43.56,111.79-52.58,126.97Z"></path><path fill="#214d9a" d="M1174.88,869.45c-.18,26.87,.9,86.77,3.66,116.05,.25,2.68,2.17,4.7,4.44,4.7h7.64c3.22,0,5.63-.03,7.23-.06,1.38-.02,2.57-1.2,2.83-2.81,7.59-45.78,13.03-83.81,17.01-116.67,3.33-27.51,6.29-51.09,8.56-71.39,2.29-20.43,3.88-37.53,4.45-51.99,.09-2.28,.15-4.49,.19-6.64,.04-2.16,.05-4.26,.03-6.3l-63.24-7.3c.8,49.77,7.3,125.88,7.19,142.39Z"></path><path fill="#153d74" d="M1190.62,990.2c2.89,0,5.13-.02,6.71-.05,1.68-.03,3.12-1.45,3.44-3.41,7.54-45.51,12.95-83.36,16.91-116.08,3.33-27.51,6.29-51.09,8.56-71.39,2.29-20.43,3.88-37.53,4.45-51.99l-23.21,16.17s14.81,6.19,9.16,53.04c-5.65,46.86-18.18,167.06-26.04,173.69Z"></path><path fill="#ff912b" d="M1187.63,746.84s4.45,19.06,19.87,16.63c15.41-2.43,37.33-13.39,37.33-13.39,0,0-6.59-24.65-14.78-57.04-9.91-39.21-22.19-89.75-27.97-121.63-1.62-8.93-2.73-16.39-3.14-21.74l-12.79-29.39s-19.07,50.68-20.09,63.46c-1.03,12.78,21.58,163.08,21.58,163.08Z"></path><path fill="#ffae73" d="M1203.02,581.85l-16.88-61.56s21.32,7.5,32.01,13.9c0,0,6.69,10.21,10.83,33.77,0,0,4.37,56.56-5.39,77.25,0,0-30.83,7.3-80.15-12.78v-13.39s53.94,3.35,64.99,4.87l-5.42-42.07Z"></path><path fill="#fc7600" d="M1188.31,610.53c.69,20.69,4.8,60.85,41.44,82.35,.1,.05,.2,.12,.29,.16-9.91-39.21-22.19-89.75-27.97-121.63-6.73,11.91-14.14,27.72-13.76,39.12Z"></path><path fill="#ff912b" d="M1186.14,520.29s31.28,2.61,38.82,22.49c7.54,19.88,9.93,86,.34,105.48,0,0-13.2,4.45-36.56-.72-.29-.06-.57-.13-.86-.19,0,0-7.45-21.6-.77-25.86,0,0,19.69,1.22,17.64-6.49-2.05-7.71-18.61-94.7-18.61-94.7Z"></path><g><path fill="#b53c37" d="M1107.71,627.32l.92,3.51,51.33-18.91s.68-.92,.35-2.15c-.37-1.35-1.27-1.36-1.27-1.36l-51.33,18.91Z"></path><polygon fill="#b53c37" points="1104 630.64 1107.71 627.32 1108.63 630.83 1104 630.64"></polygon></g><path fill="#ffae73" d="M1095.85,710.33s-13.02,8.52-14.74,15.02c-1.71,6.5-.54,20.09,1.53,19.89,2.07-.2,5.15-14.61,6.86-15.63,1.71-1.01,4.11-4.06,4.11-1.83s-1.71,6.29-.86,6.9c.86,.61,3.6-5.68,5.48-6.9,1.88-1.22,2.68-11.25,4.51-13.95,1.83-2.69-6.91-3.51-6.91-3.51Z"></path><path fill="#ffae73" d="M1143.45,619.05s-11.65-8.5-16.53-7.19c-4.89,1.31-17.34,11.99-11.35,14.3,5.99,2.31,10.84-.11,13.14,1.57,2.3,1.68,4,4.75,14.74,4.71,10.73-.04,0-13.39,0-13.39Z"></path></g><g><g opacity=".6"><path fill="#6ca3ea" d="M579.43,1020.89h-.19c-1.13,0-2.04-1.1-2.02-2.44l3.06-156.98,9.01-1.24-7.68,158.23c-.07,1.37-1.02,2.43-2.18,2.43Z"></path><path fill="#6ca3ea" d="M526.94,1020.89h-.19c-1.13,0-2.04-1.1-2.02-2.44l3.06-156.98,9.01-1.24-7.68,158.23c-.07,1.37-1.02,2.43-2.18,2.43Z"></path><path fill="#6ca3ea" d="M671.78,1020.89h.19c1.13,0,2.04-1.1,2.02-2.44l-3.06-156.98-9.01-1.24,7.68,158.23c.07,1.37,1.02,2.43,2.18,2.43Z"></path><path fill="#6ca3ea" d="M520.97,851.73v-107.57c0-18.93,12.95-34.27,28.93-34.27h65.43c15.98,0,28.93,15.34,28.93,34.27v111.68l-123.3-4.11Z"></path><path fill="#6ca3ea" d="M520.97,851.73h135.02v16.98h-120.92c-7.79,0-14.11-6.32-14.11-14.11v-2.87h0Z"></path><rect fill="#6ca3ea" ry="7.05" rx="7.05" height="16.98" width="108.43" y="851.73" x="569.13"></rect></g><g><path fill="#ffae73" d="M742.64,958.3c.91,5.41,7.42,4.5,14.69,2.4,7.27-2.1,5.54,.4,15.89-.96,10.35-1.36,13.48-5.93,13.8-7.75,.28-1.62-4.83-2.19-10.31-2.94-.69-.09-1.38-.19-2.08-.29-6.19-.92-10.72-5.65-16.35-9.54-5.33-3.68-13.28-18.68-13.28-18.68l-14.19,1.33s7.45,13.39,10.33,19.22c1.69,3.43,1.6,7.95,1.39,11.45-.11,1.9-.21,3.84,.11,5.75Z"></path><path fill="#1e3865" d="M757.33,960.7c7.27-2.1,5.54,.4,15.89-.96,10.35-1.36,13.48-5.93,13.8-7.75,.28-1.62-4.83-2.19-10.31-2.94l-.05,.12s-6.2,5.21-14.82,5.46c-7.02,.2-14.45-2.18-19.3-2.09-.11,1.9-.21,3.84,.11,5.75,.91,5.41,7.42,4.5,14.69,2.4Z"></path><path fill="#ffae73" d="M620.71,982.48c-2.82,4.39,2.06,9.57,8.2,14.64,6.14,5.07,3.41,5.19,11.12,13.48,7.7,8.29,12.67,8.05,14.03,7.13,1.21-.82-1.81-5.74-4.96-11.1-.4-.67-.79-1.36-1.19-2.04-3.51-6.11-3.52-13.26-4.78-20.83-1.19-7.17,8.69-33.5,8.69-33.5l-15.87-2.37s-2.07,15.91-3.86,22.32c-1.05,3.77-5.46,6.26-7.81,8.38-1.28,1.16-2.58,2.35-3.57,3.9Z"></path><path fill="#1e3865" d="M628.9,997.12c6.14,5.07,3.41,5.19,11.12,13.48,7.7,8.29,12.67,8.05,14.03,7.13,1.21-.82-1.81-5.74-4.96-11.1l-.11,.04s-7.4-2.06-13.26-9.55c-4.77-6.1-8.18-14.28-11.45-18.52-1.28,1.16-2.58,2.35-3.57,3.9-2.82,4.39,2.06,9.57,8.2,14.64Z"></path><path fill="#0b3563" d="M685.53,847.84l-14.5,46.21-18.93,60.33s-5.14,.59-10.05-1.09c-4.53-1.55-9.72-5.61-9.72-5.61,0,0,5.26-64.78,15.06-101.96,2.51-9.55,5.33-17.27,8.44-21.61,15.2-21.27,29.71,23.73,29.71,23.73Z"></path><path fill="#214d9a" d="M670.79,774.46c-9.5-3.63-38.12-1.46-65.33,4.84l-4.17-8.64-58.77-5.44s-19.39,50.94-8.78,83.4c1.56,4.77,4.66,7.83,9.95,7.93h.86s34.98-.02,46.34-.02c29.23,0,61.86-23.8,66.08-24.8,6.91-1.64,9.67,14.73,16.58,31.92,6.91,17.19,64.95,76.11,64.95,76.11,0,0,8.92,.11,12.6-1.53,3.96-1.76,5.41-4.05,5.41-4.05,0,0-64.31-151.54-85.73-159.73Z"></path><path fill="#1e3865" d="M580.71,559.95c-8.27-2.33-19.51,.41-21.37,.66-22.32,3.09-27.31,44.15-25.65,55.64,3.06,21.17-5.52,27.13-15.77,44.06-20.54,33.95-6.35,61.9,10.37,68.83,10.03,4.16,23.7-7.16,23.7-7.16,.25,.11,35.49-39.74,52.92-59.09,29.3-14.3-3.12-97-24.2-102.95Z"></path><path fill="#ffae73" d="M585.49,656.77c.1,.04-9.09,7.15-16.58,5.66-7.05-1.4-14.5-12.29-14.41-12.33,2.85-1.03,5.37-4.97,3.59-25.28l1.34,.15,22.52,2.56s.19,8.29,.83,16.05c.54,6.51,1.39,12.65,2.71,13.19Z"></path><path fill="#f9924f" d="M581.95,627.53s.19,8.29,.83,16.05c-12.39,1.05-20.05-11.52-23.35-18.6l22.52,2.56Z"></path><path fill="#ffae73" d="M586.69,634.39s-29.19,4.04-31.03-17.53c-1.84-21.57-6.85-35.57,11.7-39.06,18.56-3.49,22.89,4.3,24.98,11.32,2.09,7.02,1.89,43.66-5.65,45.26Z"></path><path fill="#1e3865" d="M588.87,578.05s-14.09,23.9-26.06,29.1c-11.97,5.2-17.63,1.93-17.63,1.93,0,0,5.71-9.31,7.59-22.12,.55-3.78,2.77-6.92,5.82-8.18,8.58-3.55,25.13-8.98,30.27-.72Z"></path><path fill="#1e3865" d="M577.22,579.81s7.53,5.09,10.54,9.65c2.9,4.4,6.01,16.08,5.56,21.23,0,0,4.75-24.53-2.85-33.46-8.06-9.46-13.25,2.57-13.25,2.57Z"></path><path fill="#fff" d="M607.93,714c-.88,69.83-.24,55.24-6.69,61.86-1.55,1.6-5.92,2.55-11.67,3-18.08,1.42-49.85-2.11-51.06-6.06-4.17-13.69-1.23-17.95-4.7-38.91-.36-2.23-.81-4.64-1.34-7.27-2.9-14.4-5.72-19.29,4.57-42.42,9.33-20.95,19.41-37.69,20.28-37.07,24.62,17.31,26.22,2.49,26.22,2.49,0,0,24.83,30.33,24.4,64.39Z"></path><path fill="#214d9a" d="M671.03,894.05l-19.36,62.84s-6.95,2.68-12.02,1.81c-5.16-.89-7.99-4.22-7.99-4.22,0,0,5.91-71.57,15.72-108.76l23.65,48.33Z"></path><path fill="#fff" d="M583.54,649.6s25.33,5.09,28.31,18.01c2.97,12.92,24.73,84.11,24.73,84.11,0,0-17.13,7.5-23.08,.45-5.95-7.05-20.7-65.38-20.7-65.38l-9.26-37.19Z"></path><path fill="#dceaff" d="M589.57,778.85c-18.08,1.42-49.85-2.11-51.06-6.06-4.17-13.69-1.23-17.95-4.7-38.91l8.48-22.87s-1.2,26.17,6.86,34.69c8.05,8.52,33.01,16.44,36.93,23.56,1.89,3.42,3.13,6.84,3.5,9.59Z"></path><g><path fill="#ffae73" d="M591.04,763.95s5.38,5.5,6.92,5.94c1.53,.44,2.4,.03,2.4,.03l-3.92-5.44-5.4-.53Z"></path><path fill="#ffae73" d="M588.91,757.47l13.63,4.17s-.35,1.15-1.9,1.43c-1.54,.28-5.68-.46-5.68-.46l-6.05-5.14Z"></path><path fill="#ffae73" d="M565.8,766.37s19.46-10.25,23.11-8.9c3.65,1.35,13.02,7.23,14.49,9.7,1.47,2.47-7.67-.31-10.53-.52-1.85-.14-6.14,2.87-8.27,4.32-8.97,6.1-15.2,5.56-15.2,5.56l-3.61-10.16Z"></path></g><path fill="#fff" d="M557.31,647.11s-27.53,6.12-32.63,15.16c-11.13,19.72-34.82,101.43-21.55,112.39,14.94,12.34,68,3.23,68,3.23,0,0,1.77-9.78-.69-14.5-2.46-4.73-42.38-12.37-44.22-14.55-1.84-2.18,18.2-33.74,16.07-39.78-6.84-19.35,15.03-61.95,15.03-61.95Z"></path><g><path fill="#ffae73" d="M666.15,762.89s19.27,6.16,21.25,9.71c1.98,3.54,5.86,14.37,5.7,17.2-.17,2.83-5.43-5.59-7.4-7.75-1.28-1.39-5.9-2.21-8.17-2.65-5.73-1.1-8.49-4.21-10.64-5.75-1.44-1.04-3.19-.84-3.19-.84l2.45-9.92Z"></path><path fill="#ffae73" d="M685.71,778.8s1.17,7.77,2.06,9.16c.89,1.4,1.73,1.71,1.73,1.71l-.14-6.71-3.66-4.16Z"></path><path fill="#ffae73" d="M687.4,772.59l7.83,12.57s-.83,.59-2.09-.28c-1.26-.87-3.9-4.31-3.9-4.31l-1.84-7.97Z"></path><path fill="#ffae73" d="M666.89,773.65s1.79,5.14,5.35,6.98c3.57,1.84,6.18,4.61,6.76,3.61,.57-.99-2.7-6.23-2.7-6.23l-9.41-4.36Z"></path></g><path fill="#fff" d="M631.46,734.89l40.52,30.34s-4.26,6.74-5.68,7.36c-7.5,3.26-41.25,.14-52.81-20.42l17.96-17.29Z"></path><g><path fill="#fddbba" d="M615.4,767.87c2.39,0,26.18-1.95,26.18-1.95,0,0-.69,4.99,.78,7.66l-23.18,5.25-4.76-1.65,.98-9.31Z"></path><g><path fill="#ff912b" d="M575.73,772.4l39.67-4.53s-1.4,8.69,3.78,10.96l-43.74,3.79s-3.52-5.88,.28-10.22Z"></path><path fill="#ff912b" d="M641.51,766.54l-26.81,2.44s.2-1.1,.7-1.11c.5-.01,26.63-2.26,26.63-2.26l-.09,.87-.43,.06Z"></path><polygon fill="#ff912b" points="619.18 778.83 642.79 773.52 642.58 772.79 617.41 778.5 619.18 778.83"></polygon></g></g></g></g><g><g><path fill="#6ca3ea" d="M344.42,1020.64h-.21c-1.26,0-2.27-1.23-2.24-2.73l3.39-175.28,10-1.39-8.53,176.68c-.07,1.52-1.13,2.72-2.42,2.72Z"></path><path fill="#6ca3ea" d="M286.15,1020.64h-.21c-1.26,0-2.27-1.23-2.24-2.73l3.39-175.28,10-1.39-8.53,176.68c-.07,1.52-1.13,2.72-2.41,2.72Z"></path><path fill="#6ca3ea" d="M446.94,1020.64h.21c1.26,0,2.27-1.23,2.24-2.73l-3.39-175.28-10-1.39,8.53,176.68c.07,1.52,1.13,2.72,2.42,2.72Z"></path><path fill="#6ca3ea" d="M279.53,831.76v-120.11c0-21.13,14.38-38.27,32.12-38.27h72.64c17.74,0,32.12,17.13,32.12,38.27v124.7l-136.88-4.59Z"></path><path fill="#6ca3ea" d="M279.53,831.76h149.89v18.96h-134.14c-8.69,0-15.75-7.06-15.75-15.75v-3.21h0Z"></path><rect fill="#6ca3ea" ry="7.88" rx="7.88" height="18.96" width="120.36" y="831.76" x="332.99"></rect></g><g><path fill="#fddbba" d="M389.17,629.02s-6.08,6.13-7.4,22.01c-1,12.06,6.06,105.71,11.38,113.16,14.96,20.94,33.71,12.09,41.05,15.27l6.93-7.37s-24.36-21.29-26.21-28.24c-7.14-26.74-2.71-104.73-25.74-114.83Z"></path><path fill="#0b3563" d="M384.8,552.63s.41-17.18-18.71-20.55c-19.12-3.37-24.41,1.93-27.66,7.7-3.25,5.78-9.35,29.37-8.74,38.75,.61,9.39,22.42,21,22.07,26.47-.36,5.48,33.04-52.39,33.04-52.39Z"></path><path fill="#ffae73" d="M473.5,1005.83c-.62,5.8,6.06,7.51,13.84,8.32,7.77,.81,5.36,2.63,15.97,5.42,10.6,2.8,14.99-.54,15.81-2.24,.73-1.51-4.16-4.14-9.36-7.1-.66-.37-1.31-.75-1.97-1.13-5.86-3.41-9-9.99-13.47-16.16-4.23-5.84-7.86-24.12-7.86-24.12l-14.39-4.37s3.58,16.46,4.79,23.48c.71,4.13-.65,8.64-1.85,12.08-.64,1.87-1.29,3.78-1.51,5.82Z"></path><path fill="#1e3865" d="M487.34,1014.15c7.77,.81,5.36,2.63,15.97,5.42,10.6,2.8,14.99-.54,15.81-2.24,.73-1.51-4.16-4.14-9.36-7.1l-.09,.11s-7.6,2.74-16.17-.47c-6.99-2.62-13.67-8-18.48-9.86-.64,1.87-1.29,3.78-1.51,5.82-.62,5.8,6.06,7.51,13.84,8.32Z"></path><path fill="#fc7600" d="M365.74,769.19s96.22,11.82,112.08,29.27c15.86,17.45,13.04,179.98,13.04,179.98-2.47,3.03-4.29,2.96-8.19,2.6-3.74-.35-11.38-4.16-11.38-4.16,0,0-20.61-79.81-20.86-98.29-.26-18.48-3.52-49.84-10.06-51.69-6.54-1.85-84.44,8.5-92.98-20.65-8.54-29.14,5.64-53.12,5.64-53.12l12.72,16.05Z"></path><path fill="#fddbba" d="M320.8,798.51c4.15,3.29,11.58,8.37,24.03,8.9,22.29,.96,50.1-2.19,55.58-8.31,1.42-1.58,2.12-4.2,2.31-7.52,.6-10.13-3.48-26.8-6.22-40.59-1.78-8.96-2.99-16.7-2-20.66,3.02-12.04,12.42-36.59,13.23-44.66,.81-8.07-7.32-51.29-18.55-56.64-11.24-5.36-54.61,0-54.61,0-16.94,4.07-17.66,46.86-12.03,83.28,.15,.94,.29,1.87,.45,2.79,6.1,36.98-13.76,74.22-2.18,83.42Z"></path><g><path fill="#ffae73" d="M376.82,636.89c-.3,2.35-5.73,6.15-17.32,2.53-11.11-3.47-12.44-7.75-12.44-10.58,0-3.35,4.83-7.86,4.77-28.47l1.33,.31,22.4,5.25s-.51,8.35-.52,16.21c-.02,6.6,2.3,10.84,1.79,14.74Z"></path><path fill="#f9924f" d="M375.56,605.94s-.51,8.35-.52,16.21c-12.53-.42-19.16-13.96-21.87-21.47l22.4,5.25Z"></path><path fill="#ffae73" d="M379.74,613.38s-29.65,.58-29.67-21.3c-.02-21.88-3.86-36.54,15.07-37.83,18.93-1.29,22.62,7.05,24.12,14.35,1.51,7.3-1.81,44.07-9.52,44.78Z"></path><path fill="#0b3563" d="M378.64,553.72s-8.12,25.67-20.58,29.46c-12.46,3.79-17.86-.16-17.86-.16,0,0,9.56-8.99,11.54-24.69,0,0,20.78-16.83,26.9-4.61Z"></path><path fill="#0b3563" d="M376.63,555.8s6.06,5.73,7.54,11.3c1.48,5.57,2.14,17.04,4.97,16.65,0,0,6.12-17.44-.76-27.31-7.29-10.46-11.75-.64-11.75-.64Z"></path></g><path fill="#ffae73" d="M401.24,1010.6c-.07,5.85,6.73,6.64,14.53,6.38,7.8-.26,5.58,1.88,16.37,3.21,10.8,1.33,14.84-2.58,15.5-4.39,.59-1.6-4.52-3.55-9.97-5.77-.69-.28-1.37-.57-2.06-.85-6.14-2.59-9.89-8.7-14.9-14.22-4.75-5.23,5.73-30.52,5.73-30.52l-13.74-8.05s-2.61,18.06-5.96,33.85c-.87,4.08-3.69,10.8-4.56,14.38-.46,1.94-.93,3.93-.95,5.99Z"></path><path fill="#f8caa4" d="M321.39,794.16c4.15,3.29,10.98,12.71,23.44,13.24,20.56-5.54,43.96-11.99,57.89-15.84,.6-10.13-3.48-26.8-6.22-40.59-16.24,5.87-40.4-14.13-48.52-22.04-8.54-8.3-8.27-35.98-8.27-35.98l-17.17,19.34c.15,.94,.29,1.87,.45,2.79,6.1,36.98-13.17,69.88-1.59,79.07Z"></path><path fill="#1e3865" d="M415.77,1016.97c7.8-.26,5.58,1.88,16.37,3.21,10.8,1.33,14.84-2.58,15.5-4.39,.59-1.6-4.52-3.55-9.97-5.77l-.08,.12s-7.29,3.76-16.12,1.74c-7.19-1.65-14.33-6.09-19.29-7.27-.46,1.94-.93,3.93-.95,5.99-.07,5.85,6.73,6.64,14.53,6.38Z"></path><path fill="#ff912b" d="M344.98,776.14c24.43-.82,97.39,6.07,111.41,18.59,17.25,15.41-32.04,182.03-32.04,182.03,0,0-5.72,.66-7.54,.41-7.83-1.05-11.02-3.87-11.02-3.87,0,0,.19-98.07,5.95-116.83,5.32-17.33,8.58-23.47,1.92-24.5s-89.87,11.54-96.82-18.22c-5.42-23.24,2.59-44.75,2.59-44.75,0,0,3,7.89,25.54,7.13Z"></path><path fill="#fddbba" d="M334.56,629.02s-16.97,1.71-18.29,17.59c-1,12.06-8.38,97.63-3.07,105.07,14.96,20.94,64.83,25.38,72.18,28.56l2.02-9.9s-53.25-31.77-52.43-39c.81-7.22,15.87-105.18-.41-102.32Z"></path><path fill="#0b3563" d="M347.66,540.72s1.22-9.16-9.51-11.53c-10.73-2.37-10.93,24.63-12.08,31.14-1.15,6.51,1.72,10.41,5.81,10.8,4.09,.4,15.79-30.41,15.79-30.41Z"></path><g><path fill="#ffae73" d="M387.98,769.9s15.16-5.08,18.78-3.89c3.61,1.19,15.99,10.89,14.25,13.53-1.74,2.64-12.64-1.58-17.66-.78-5.02,.8-8.9,3.73-12.51,3.1-3.61-.63-7.39-2.32-7.39-2.32l4.53-9.64Z"></path><path fill="#ffae73" d="M387.98,769.9s7.42-4.51,9.53-7.08c.27-.32,.72-.26,.92,.13,.57,1.06,1.09,3.1-1.51,5.12-3.75,2.92-8.94,1.83-8.94,1.83Z"></path></g><path fill="#ffae73" d="M441.12,772.09s15.74,1.02,18.83,3.53c3.09,2.51,12.14,16.45,9.77,18.27-2.37,1.82-11.53-6.35-16.49-7.53-4.96-1.17-9.44,.11-12.68-1.88-3.24-1.99-6.35-5.03-6.35-5.03l6.93-7.37Z"></path></g></g><g><g><path fill="#163054" d="M333.02,1022.18h-64.03c-3.08-4.45-1.94-20.88-1.48-26.24,.1-1.08,.16-1.71,.16-1.71,0,0,21.86-20.71,24.87-4.85,.09,.5,.2,.98,.32,1.46,3.78,14.84,20.75,21.58,30.55,23.46,6.37,1.22,8.73,5.15,9.6,7.88Z"></path><path fill="#1e3865" d="M158.32,775.76c2.31,0,109.67,23.88,127.43,49.91,8.87,13.01,10.19,163.23,10.19,163.23,0,0-10.98,16.12-34.68,6.76,0,0-17.38-102.78-16.1-133.95,.36-8.62-73.36-1.25-86.85-5.38-13.49-4.14-46.45-38.9-39.19-55.83,7.26-16.93,39.19-24.73,39.19-24.73Z"></path><path fill="#ffae73" d="M236.06,768.7s6.87,7.02,13.92,9.01c4.02,1.13,7.91,2.42,10.23,3.68,6.38,3.47,18.47,18.94,17.34,20.48-3.61,4.93-18.13-7.91-20.91-7-2.78,.91,4.56,8.37,1.65,10.4-1.52,1.06-4.38-5.39-7.06-6.3-3.62-1.23-6.03-7.71-7.12-8.15-2.11-.86-10.94-10.23-10.94-10.23l2.89-11.88Z"></path><path fill="#153c6b" d="M361.32,1022.18h-64.03c-3.08-4.45-1.94-20.88-1.48-26.24,.1-1.08,.16-1.71,.16-1.71,0,0,21.86-20.71,24.87-4.85,.09,.5,.2,.98,.32,1.46,3.78,14.84,20.75,21.58,30.55,23.46,6.37,1.22,8.73,5.15,9.6,7.88Z"></path><path fill="#25468f" d="M189.96,775.76c2.31,0,109.67,23.88,127.43,49.91,8.87,13.01,10.19,163.23,10.19,163.23,0,0-10.98,16.12-34.68,6.76,0,0-17.38-102.78-16.1-133.95,.35-8.62-73.36-1.25-86.85-5.38-13.49-4.14-46.45-38.9-39.19-55.83,7.26-16.93,39.19-24.73,39.19-24.73Z"></path><path fill="#ffae73" d="M183.24,621.22c-7.72-.76-15.82-3.19-22.82-5.88-8.75-3.36-15.8-8.28-11.26-17.75,4.19-8.73,10.97-28.23,10.51-44.38l16.28,15.54,11.06,10.55s-.05,6.22-1.25,17.13c-.22,1.99-.48,4.13-.78,6.43-.25,1.85,.47,3.7,1.82,4.69,.08,.06,.17,.12,.25,.18,5.5,4.09,2.67,14.12-3.8,13.49Z"></path><path fill="#f9924f" d="M187.01,576.73s.57,2.26-.41,10.6c-9.86-1.91-19.08-11.22-19.08-11.22,5.02-1.63,6.85-8.06,10.58-7.46l8.9,8.07Z"></path><path fill="#ffae73" d="M196.13,578.63s-37.92,7.46-41.48-20.58c-3.56-28.04-10.85-45.97,13.21-51.92,24.06-5.95,30.14,3.91,33.25,12.93,3.11,9.02,4.8,56.91-4.97,59.57Z"></path><path fill="#25468f" d="M206.68,506.65c1.63,6.75-2.73,14.98-10.05,17.69-10.86,4.02-8.46,19.8-13.35,19.58-4.89-.21-6.86-9.07-11.22-1.99-3.72,6.03,3.1,13.19,2.63,16.5-.81,5.68-8.32,17.31-15.09,16.72-6.77-.58-19.44-38.7-16.91-50.49,2.53-11.79,12.67-24.23,22.26-25.94,9.59-1.71,22.92,3.19,25.99,3.19s14.85,1.09,15.73,4.74Z"></path><path fill="#fff" d="M216.08,767.35c-.63,6.47-1.78,10.88-3.59,12.31-5.65,4.48-13.15,10.06-21.52,15.58-29.66,19.6-70.28,38.5-78.54,5.39-9.7-38.89-3.33-111.92,6.19-157.27,5.48-26.13,20.63-53.55,30.87-53.52,17.45,.04,42.54,5.49,52.68,35.09,3.92,11.47,9.69,51.21,12.63,87.61,1.76,21.69,2.51,42.19,1.28,54.81Z"></path><path fill="#dceaff" d="M147.74,590.08l3.95-10.54s35.04,4.22,40.98,28.07c0,0-27.09-17.02-44.94-17.53Z"></path><path fill="#dceaff" d="M216.08,767.35c-.63,6.47-1.78,10.88-3.59,12.31-5.65,4.48-13.15,10.06-21.52,15.58-8.73-6.29-26.65-21.28-30.84-38.96-5.48-23.11-1.64-51.55-1.64-51.55l57.59,62.62Z"></path><path fill="#fff" d="M154.85,625.65s3.04,99.34,7.81,118.98c8.13,33.49,82.31,45.42,82.31,45.42,0,0,4.38-5.87,2.42-15.61,0,0-44.34-41.4-45.64-49.28-1.3-7.88,9.66-61.29-2.86-80.71-12.52-19.42-35.62-36.25-44.03-18.8Z"></path></g><g><path fill="#6ca3ea" d="M61.86,1021.23h-.24c-2-.05-3.54-1.98-3.35-4.21l13.32-157.62,11.63,1.23-19.13,158.47c-.15,1.24-1.11,2.15-2.22,2.13Z"></path><path fill="#6ca3ea" d="M130.44,1021.23h-.24c-2-.05-3.54-1.98-3.35-4.21l13.32-157.62,11.63,1.23-19.13,158.47c-.15,1.24-1.11,2.15-2.22,2.13Z"></path><path fill="#6ca3ea" d="M259.2,1021.23h.24c2-.05,3.54-1.98,3.35-4.21l-13.32-157.62-11.63,1.23,19.13,158.47c.15,1.24,1.11,2.15,2.22,2.13Z"></path><path fill="#6ca3ea" d="M65.62,837.07l-12.65-131.65c-1.66-18.97,3.7-37.55,26.82-38.99l40.66-2.93c24.1-1.18,34.98,22.58,38.03,40.87l24.14,144.71-117-12.02Z"></path><path fill="#6ca3ea" transform="translate(325.31 1698.18) rotate(180)" d="M76.31,836.47H249c5.78,0,10.48,4.7,10.48,10.48v14.75H76.31c-5.78,0-10.48-4.7-10.48-10.48v-4.27c0-5.78,4.7-10.48,10.48-10.48Z"></path><path fill="#6ca3ea" transform="translate(248.45 1698.18) rotate(-180)" d="M75.12,836.47h98.21c5.13,0,9.29,4.16,9.29,9.29v15.94H75.12c-5.13,0-9.29-4.16-9.29-9.29v-6.64c0-5.13,4.16-9.29,9.29-9.29Z"></path></g></g><rect fill="#2d3554" ry="3.25" rx="3.25" height="7.82" width="1611.04" y="1020.18" x="8.96"></rect><g><rect fill="#6ca3ea" ry="9.47" rx="9.47" height="83.78" width="72.91" y="353.39" x="283.91"></rect><path fill="#dceaff" d="M295.72,357.02h49.3c4.77,0,8.65,3.87,8.65,8.65v59.22c0,4.77-3.87,8.65-8.65,8.65h-49.3c-4.77,0-8.65-3.87-8.65-8.65v-59.22c0-4.77,3.87-8.65,8.65-8.65Z"></path><g><g><ellipse fill="#6ca3ea" ry="1.79" rx="1.51" cy="364.67" cx="320.37"></ellipse><path fill="#6ca3ea" d="M331.04,367.2c.41-.86,1.32-1.17,2.05-.69,.73,.48,.99,1.57,.59,2.43-.41,.86-1.32,1.17-2.05,.69-.73-.48-.99-1.57-.59-2.43Z"></path><path fill="#6ca3ea" d="M341.48,377.02c.7-.54,1.64-.3,2.09,.53,.45,.83,.25,1.94-.45,2.47-.7,.54-1.64,.3-2.09-.53-.45-.83-.25-1.94,.45-2.47Z"></path><path fill="#6ca3ea" d="M346.65,392.23c.83,0,1.51,.8,1.51,1.79s-.68,1.79-1.51,1.79-1.51-.8-1.51-1.79,.68-1.79,1.51-1.79Z"></path><ellipse fill="#6ca3ea" ry="1.79" rx="1.51" cy="411.14" cx="342.94"></ellipse><path fill="#6ca3ea" d="M334.53,421.13c.59,.7,.59,1.83,0,2.53-.59,.7-1.55,.7-2.14,0-.59-.7-.59-1.83,0-2.53,.59-.7,1.55-.7,2.14,0Z"></path><ellipse fill="#6ca3ea" ry="1.79" rx="1.51" cy="426.94" cx="320.37"></ellipse></g><g><path fill="#6ca3ea" d="M309.64,367.2c-.41-.86-1.32-1.17-2.05-.69-.73,.48-.99,1.57-.59,2.43,.41,.86,1.32,1.17,2.05,.69,.73-.48,.99-1.57,.59-2.43Z"></path><path fill="#6ca3ea" d="M299.2,377.02c-.7-.54-1.64-.3-2.09,.53-.45,.83-.25,1.94,.45,2.47,.7,.54,1.64,.3,2.09-.53,.45-.83,.25-1.94-.45-2.47Z"></path><path fill="#6ca3ea" d="M294.03,392.23c-.83,0-1.51,.8-1.51,1.79s.68,1.79,1.51,1.79,1.51-.8,1.51-1.79-.68-1.79-1.51-1.79Z"></path><ellipse fill="#6ca3ea" ry="1.79" rx="1.51" cy="411.14" cx="297.74"></ellipse><path fill="#6ca3ea" d="M306.15,421.13c-.59,.7-.59,1.83,0,2.53,.59,.7,1.55,.7,2.14,0,.59-.7,.59-1.83,0-2.53-.59-.7-1.55-.7-2.14,0Z"></path></g></g><g><path fill="#6ca3ea" d="M319.96,394.01c0-.99,.68-1.79,1.51-1.79s1.51,.8,1.51,1.79-.68,1.79-1.51,1.79-1.51-.8-1.51-1.79Z"></path><rect fill="#6ca3ea" height="22.35" width=".41" y="371.67" x="321.26"></rect><polygon fill="#6ca3ea" points="321.66 394.56 320.9 393.41 330.9 384.11 331.66 385.26 321.66 394.56"></polygon></g></g></g></g></g></svg>