<?xml version="1.0" standalone="no"?>
<!DOCTYPE svg PUBLIC "-//W3C//DTD SVG 1.1//EN" "http://www.w3.org/Graphics/SVG/1.1/DTD/svg11.dtd"><svg t="1700548875296"
    class="icon" viewBox="0 0 1134 1024" version="1.1" xmlns="http://www.w3.org/2000/svg" p-id="44522"
    data-spm-anchor-id="a313x.search_index.0.i40.6d133a81TBbO3m" xmlns:xlink="http://www.w3.org/1999/xlink"
    width="885.9375" height="800">
    <path
        d="M452.013322 419.316236l-174.99045-79.566447v129.156142l174.99045 79.579717zM1026.468205 628.702321v-88.417484l-52.840825-32.564387v102.204933c18.57789 4.193295 36.293234 10.549587 52.840825 18.776938z"
        p-id="44523" data-spm-anchor-id="a313x.search_index.0.i43.6d133a81TBbO3m" class="selected" fill="#515151">
    </path>
    <path
        d="M692.079464 820.120933c0-71.179857 36.505553-134.265061 92.610779-173.132661V403.631189l46.245675-19.758912v238.447212a233.218863 233.218863 0 0 1 85.352133-16.043335c9.076626 0 17.994013 0.517527 26.7787 1.512771V401.229334l-112.117563-61.466275-46.245675 19.758913V225.004782L545.619345 116.523177l-118.248267 57.870126v202.061088l36.346314 14.477484V190.940894l81.901953-36.160535V791.418093h-40.101701V607.07235l-228.494772-108.494875-106.995373 43.405912v249.461246H118.327886v36.717872h573.937357a179.727811 179.727811 0 0 1-0.185779-8.041572zM277.036142 791.418093h-66.601734V563.002942l66.601734-27.136989V791.418093z m188.33999 0H320.773802V631.913642l144.60233 65.115503v94.388948z"
        p-id="44524" data-spm-anchor-id="a313x.search_index.0.i42.6d133a81TBbO3m" class="" fill="#ea9518"></path>
    <path
        d="M1048.960722 769.735042h-34.249667c-6.077624 0-12.632965-4.498503-14.557103-9.99225l-4.671012-10.589397c-2.799953-5.161999-1.552581-12.725854 2.746873-16.83953l24.390115-23.248902a10.231109 10.231109 0 0 0 0-14.915391l-21.8821-20.860316a11.451942 11.451942 0 0 0-15.618697 0l-24.575894 23.43468c-4.299454 4.100406-12.248137 5.307968-17.688804 2.707064l-10.828256-4.246374c-5.785686-1.804709-10.509777-8.001762-10.509778-13.800718v-33.227883c0-5.798956-4.97622-10.536317-11.053844-10.536317h-30.958726c-6.064354 0-11.040574 4.737362-11.040574 10.536317v33.227883c0 5.812225-4.724092 11.996009-10.509777 13.800718l-10.841526 4.246374c-5.427398 2.600905-13.38935 1.380072-17.688805-2.707064l-24.562624-23.43468a11.465212 11.465212 0 0 0-15.631967 0l-21.86883 20.860316a10.231109 10.231109 0 0 0 0 14.915391l24.390115 23.262172c4.299454 4.100406 5.533557 11.664261 2.746874 16.82626l-4.684282 10.589397c-1.910869 5.493747-8.45294 9.992251-14.543834 9.99225h-34.262936c-6.077624 0-11.053844 4.737362-11.053844 10.536318v29.525574c0 5.798956 4.97622 10.536317 11.053844 10.536317h33.917918c6.077624 0 12.566615 4.511773 14.424405 10.045331l4.697552 11.014034c2.733604 5.201809 1.433151 12.792204-2.853033 16.87934l-23.832779 22.718105a10.231109 10.231109 0 0 0 0 14.915391l21.86883 20.860316c4.299454 4.113676 11.332513 4.113676 15.631967 0l23.66027-22.545596c4.286185-4.100406 12.234867-5.281429 17.635725-2.640714l11.810229 4.697552c5.772416 1.817979 10.496508 8.015032 10.496508 13.813987v31.808001c0 5.812225 4.97622 10.549587 11.053844 10.549588h30.945456c6.077624 0 11.053844-4.737362 11.053844-10.549588v-31.808001c0-5.798956 4.724092-11.996009 10.496508-13.813987l8.585639-3.42364-16.667021-15.910635a93.592753 93.592753 0 0 1-28.941698 4.538313c-24.018557 0-46.590693-8.917387-63.562922-25.119961s-26.327523-37.713116-26.327523-60.60373 9.355294-44.440966 26.327523-60.630269c16.972229-16.189304 39.544365-25.106691 63.562922-25.106691 24.005287 0 46.577423 8.917387 63.562922 25.106691 16.945689 16.202574 26.300984 37.739656 26.300984 60.630269 0 9.315485-1.552581 18.405381-4.538313 27.00429l16.74664 15.963715 3.582879-8.34678c1.844519-5.520287 8.320241-10.04533 14.397864-10.045331h33.917919c6.077624 0 11.053844-4.737362 11.053844-10.536317V780.27136c0.01327-5.785686-4.96295-10.536317-11.053844-10.536318m-86.201408 59.860614c-3.543069-3.31748-5.188539-5.971464-3.184781-11.305973 10.403618-27.959724 0.862545-56.675833-24.655513-73.701141-16.096414-10.735366-34.063887-13.827258-53.91569-8.174272 7.431156 8.306971 15.764666 15.220599 23.59392 22.638486 15.353299 14.557103 15.592157 32.564386 0.915625 46.312024-14.185546 13.349541-33.400391 12.911633-48.130004-1.287182-7.736364-7.457696-15.20733-15.16752-22.797724-22.744645l-2.733604 1.539311c-4.392344 22.850804 1.035054 43.259943 19.029067 59.621755 19.161766 17.423406 42.09219 22.359817 67.21215 14.291705 6.409372-2.056838 9.819742-0.968704 14.159006 3.237861 18.737129 18.139982 52.681587 48.899659 71.763733 66.694624 9.222595 8.598909 20.568378 8.890847 29.671543 1.366801 11.305973-9.355294 11.876579-21.722861 1.035054-32.046859-18.869828-17.994013-52.907175-48.634261-71.962782-66.442495m55.056903 90.83261c-5.785686 0-10.483238-4.498503-10.483238-10.01879s4.697552-10.01879 10.483238-10.018791c5.812225 0 10.509777 4.498503 10.509777 10.018791s-4.697552 10.01879-10.509777 10.01879m0 0z"
        p-id="44525" data-spm-anchor-id="a313x.search_index.0.i41.6d133a81TBbO3m" class="selected" fill="#515151">
    </path>
</svg>