<svg t="1700549703685" class="icon" viewBox="0 0 1088 1024" version="1.1" xmlns="http://www.w3.org/2000/svg"
    p-id="62925" width="800" height="800">
    <path
        d="M74.304 93.888c0-16.512 13.44-29.888 29.888-29.888h69.696v59.712h-39.872v22.4h-59.712v-52.224zM313.216 64h139.392v59.712H313.216V64zM592 64h139.392v59.712H592V64zM870.784 64h69.632c16.512 0 29.888 13.376 29.888 29.888v52.224h-59.712v-22.4h-39.808V64zM74.304 355.2V250.688h59.712V355.2h-59.712zM970.304 250.688V355.2h-59.712V250.688h59.712zM74.304 564.288V459.712h59.712v104.576h-59.712zM970.304 459.712v104.576h-59.712V459.712h59.712zM74.304 773.312V668.8h59.712v104.512h-59.712zM970.304 668.8v104.512h-59.712V668.8h59.712zM74.304 930.112v-52.224h59.712v22.4h39.872V960h-69.76a29.888 29.888 0 0 1-29.824-29.888zM970.304 877.888v52.224a29.888 29.888 0 0 1-29.824 29.888h-69.76v-59.712h39.872v-22.4h59.712zM452.608 960H313.216v-59.712h139.392V960zM731.392 960H592v-59.712h139.392V960zM202.304 416.96a16 16 0 0 1 16 16c0 1.984 1.216 6.144 10.048 11.904 8.576 5.568 21.376 10.432 36.544 14.464a375.488 375.488 0 0 0 84.608 11.2c18.88 0 54.336-3.2 84.544-11.2 15.232-4.032 28.032-8.96 36.608-14.464 8.832-5.76 10.048-9.92 10.048-11.904a16 16 0 0 1 32 0c0 18.112-12.16 30.72-24.704 38.72a162.56 162.56 0 0 1-45.76 18.56 406.976 406.976 0 0 1-92.736 12.288c-21.248 0-59.456-3.52-92.736-12.288a162.56 162.56 0 0 1-45.824-18.56c-12.416-8.064-24.64-20.608-24.64-38.72a16 16 0 0 1 16-16zM695.104 415.808L614.848 496.128h53.504v51.712a305.28 305.28 0 0 0-82.752 15.808 118.4 118.4 0 0 0-36.48 19.904c-9.408 8.128-17.152 19.2-17.152 33.024 0 13.76 7.68 24.896 17.088 32.96 9.472 8.128 22.208 14.72 36.48 19.84 28.8 10.56 67.584 16.64 109.568 16.64 42.048 0 80.768-6.08 109.568-16.64 14.336-5.12 27.072-11.776 36.48-19.84 9.408-8.064 17.152-19.2 17.152-32.96 0-13.824-7.68-24.96-17.152-33.024a118.4 118.4 0 0 0-36.48-19.84 305.28 305.28 0 0 0-82.752-15.872v-51.712h53.504L695.04 415.808z m-98.56 177.92a271.424 271.424 0 0 1 71.808-13.76v23.168h53.568v-23.168c28.224 1.92 53.12 6.976 71.808 13.76 12.288 4.48 21.12 9.408 26.56 14.08 5.504 4.8 6.016 7.744 6.016 8.768 0 0.96-0.512 3.968-6.016 8.64-5.44 4.736-14.272 9.664-26.56 14.08-24.448 8.96-59.328 14.72-98.56 14.72-39.296 0-74.24-5.76-98.624-14.72a87.488 87.488 0 0 1-26.624-14.08c-5.504-4.672-5.952-7.68-5.952-8.64 0-1.024 0.448-3.968 5.952-8.704 5.44-4.736 14.272-9.664 26.624-14.08z"
        fill="#9859EE" p-id="62926"></path>
    <path
        d="M349.504 176c-41.984 0-80.768 6.144-109.568 16.64a118.4 118.4 0 0 0-36.48 19.904c-9.408 8.064-17.152 19.2-17.152 32.96v186.688a16 16 0 0 1 32 0.768c0 1.984 1.216 6.144 10.048 11.904 5.76 3.712 13.44 7.168 22.464 10.24a86.08 86.08 0 0 1-26.304-14.464c-5.504-4.928-6.208-8.192-6.208-9.6V288.64c6.592 3.648 13.888 6.848 21.632 9.728 28.8 10.432 67.584 16.64 109.568 16.64 41.984 0 80.768-6.208 109.568-16.64 7.744-2.88 15.04-6.08 21.632-9.728v142.336c0 1.408-0.704 4.672-6.208 9.6a86.08 86.08 0 0 1-26.304 14.464 103.68 103.68 0 0 0 22.4-10.24c8.96-5.76 10.112-9.92 10.112-11.904a16 16 0 0 1 32-0.768V245.504c0-13.76-7.744-24.896-17.152-32.96a118.4 118.4 0 0 0-36.48-19.904c-28.8-10.496-67.584-16.64-109.568-16.64z m-131.2 69.504c0-0.96 0.512-3.968 6.016-8.704 5.44-4.672 14.272-9.6 26.56-14.08 24.448-8.96 59.328-14.72 98.624-14.72 39.296 0 74.112 5.76 98.56 14.72 12.352 4.48 21.12 9.408 26.624 14.08 5.504 4.736 6.016 7.744 6.016 8.704 0 0.96-0.512 3.968-6.016 8.704-5.44 4.736-14.272 9.6-26.56 14.08-24.512 8.96-59.328 14.72-98.624 14.72-39.296 0-74.176-5.76-98.56-14.72a87.488 87.488 0 0 1-26.624-14.08c-5.504-4.736-6.016-7.68-6.016-8.704zM338.752 502.272H337.92a409.984 409.984 0 0 1-81.216-12.032 239.04 239.04 0 0 1-16.704-4.992c18.688 7.04 41.472 12.16 66.688 14.848v37.184h-37.504a16 16 0 0 0-11.328 27.328l80.256 80.256a16 16 0 0 0 22.656 0l80.256-80.256a16 16 0 0 0-11.328-27.328H392.32v-37.12a279.68 279.68 0 0 0 66.688-14.912 239.36 239.36 0 0 1-16.704 4.992 413.248 413.248 0 0 1-81.92 11.968v51.072a16 16 0 0 0 16 16h14.848l-41.664 41.6-41.6-41.6h14.848a16 16 0 0 0 16-16v-51.008zM349.504 470.4zM695.104 399.872a16 16 0 0 0-11.328 4.672L603.52 484.8a16 16 0 0 0 11.328 27.328h37.504v91.072c0 8.832 7.168 16 16 16h53.504a16 16 0 0 0 16-16V512.128h37.568a16 16 0 0 0 11.264-27.328l-80.256-80.256a16 16 0 0 0-11.328-4.672z m41.664 80.256h-14.912a16 16 0 0 0-16 16v91.072h-21.504V496.128a16 16 0 0 0-16-16h-14.912l41.664-41.6 41.664 41.6z"
        fill="#545e61" p-id="62927"></path>
    <path
        d="M531.968 617.664V802.048c0 13.824 7.488 25.152 16.896 33.472 9.408 8.384 22.208 15.232 36.544 20.608 28.864 10.88 67.648 17.28 109.696 17.28s80.896-6.4 109.76-17.28c14.336-5.376 27.072-12.16 36.48-20.608 9.472-8.32 16.96-19.648 16.96-33.472V617.6c-0.384 13.312-8 24-17.152 31.872a89.984 89.984 0 0 1-14.848 10.176v142.336c0 1.408-0.704 4.736-6.208 9.6a86.528 86.528 0 0 1-26.56 14.528c-24.32 9.216-59.2 15.232-98.432 15.232s-73.984-6.016-98.432-15.232a86.528 86.528 0 0 1-26.56-14.528c-5.44-4.864-6.144-8.192-6.144-9.6v-142.336a90.112 90.112 0 0 1-14.912-10.24c-9.152-7.808-16.64-18.56-17.088-31.808z"
        fill="#545e61" p-id="62928"></path>
</svg>