<svg t="1700549642464" class="icon" viewBox="0 0 1024 1024" version="1.1" xmlns="http://www.w3.org/2000/svg"
    p-id="61449" width="800" height="800">
    <path
        d="M420.6592 387.959467c264.192 0 447.965867-67.925333 447.965867-148.48V148.8896c0-83.012267-183.773867-148.48-447.965867-148.48C156.330667 0.4096 0.341333 65.877333 0.341333 148.8896v90.589867c0 80.554667 156.0576 148.48 420.317867 148.48zM357.717333 760.490667c-181.179733-7.509333-279.3472-65.399467-334.711466-120.832-15.018667 15.1552-20.138667 30.242133-20.138667 45.329066v118.306134c0 83.012267 153.531733 148.48 417.792 148.48 27.648 0 52.8384 0 78.0288-2.525867-67.9936-45.2608-125.883733-103.150933-140.970667-188.757333z m2.525867-78.0288a326.997333 326.997333 0 0 1 75.502933-208.896h-17.6128c-213.947733 0-334.711467-42.734933-395.127466-105.6768-15.018667 15.1552-20.138667 30.242133-20.138667 45.329066v118.306134c-2.525867 80.554667 130.8672 143.36 357.376 150.9376z"
        fill="#8a8a8a" p-id="61450" data-spm-anchor-id="a313x.search_index.0.i69.6d133a81TBbO3m" class=""></path>
    <path
        d="M999.424 919.005867l-88.064-88.064c25.1904-40.277333 40.277333-88.064 40.277333-138.4448 0-145.954133-118.306133-264.192-266.786133-264.192-148.411733 0-266.717867 118.237867-266.717867 264.192s118.306133 264.192 266.717867 264.192c55.364267 0 105.745067-17.544533 148.48-45.2608l85.6064 88.064a57.1392 57.1392 0 0 0 40.277333 15.1552 55.842133 55.842133 0 0 0 55.296-55.364267c2.594133-15.1552-4.983467-30.242133-15.018666-40.277333z"
        fill="#199555" p-id="61451" data-spm-anchor-id="a313x.search_index.0.i71.6d133a81TBbO3m" class="selected">
    </path>
    <path
        d="M684.8512 873.6768a184.7296 184.7296 0 0 1-183.637333-183.637333 184.7296 184.7296 0 0 1 183.637333-183.773867 184.7296 184.7296 0 0 1 183.773867 183.7056 181.589333 181.589333 0 0 1-183.773867 183.7056z"
        fill="#FFFFFF" p-id="61452"></path>
</svg>